<svg width="64" height="64" viewBox="0 0 64 64" fill="none" xmlns="http://www.w3.org/2000/svg">
<path fill-rule="evenodd" clip-rule="evenodd" d="M31.9 36.8496L39.9629 13.3805L56.7607 13.3812H57.8436C57.8436 13.3812 60.3632 13.5106 61.5391 12.0006C62.2403 11.9482 61.3923 15.1507 60.5977 17.5039C59.8522 19.7119 58.933 20.9734 56.8357 20.9741L54.1481 20.9735L47.3539 20.9735L37.2753 51H26.5247L16.4461 20.9735L9.65195 20.9735L6.96431 20.9741C4.86699 20.9734 3.94782 19.7119 3.20228 17.5039C2.40772 15.1507 1.55974 11.9482 2.26094 12.0006C3.43682 13.5106 5.95644 13.3812 5.95644 13.3812L7.03933 13.3812L23.8371 13.3805L31.9 36.8496ZM9.99069 25.1158C9.99069 25.1158 7.47107 25.2452 6.29519 23.7352C5.594 23.6828 6.44197 26.8853 7.23654 29.2385C7.98207 31.4465 8.90124 32.708 10.9986 32.7087L18.4646 32.708L15.9449 25.1151L9.99069 25.1158ZM14.0205 36.8485C14.0205 36.8485 11.5009 36.9779 10.325 35.4679C9.62381 35.4155 10.4718 38.618 11.2663 40.9712C12.0119 43.1792 12.9311 44.4407 15.0284 44.4414L22.4944 44.4407L19.9747 36.8478L14.0205 36.8485ZM53.8144 25.1158C53.8144 25.1158 56.334 25.2452 57.5099 23.7352C58.2111 23.6828 57.3631 26.8853 56.5686 29.2385C55.823 31.4465 54.9039 32.708 52.8066 32.7087L45.3405 32.708L47.8602 25.1151L53.8144 25.1158ZM49.7802 36.8485C49.7802 36.8485 52.2998 36.9779 53.4757 35.4679C54.1769 35.4155 53.3289 38.618 52.5343 40.9712C51.7888 43.1792 50.8696 44.4407 48.7723 44.4414L41.3063 44.4407L43.8259 36.8478L49.7802 36.8485Z" fill="#FB3841"/>
</svg>
