<svg width="64" height="64" viewBox="0 0 64 64" fill="none" xmlns="http://www.w3.org/2000/svg">
<rect width="64" height="64" fill="#29292E"/>
<path fill-rule="evenodd" clip-rule="evenodd" d="M30.3241 24.0698C30.2981 24.0265 30.2517 24 30.2016 24H26.4827C26.4293 24 26.3805 24.0301 26.3557 24.0777L21.2236 34.0057L19.4767 24.1196C19.4644 24.0503 19.4052 24 19.3358 24H15.5914C15.5489 24 15.5083 24.0193 15.4812 24.0526C15.4541 24.0857 15.4429 24.1295 15.4507 24.172L18.2232 39.0399C18.236 39.1086 18.2952 39.1579 18.3637 39.1579C18.3663 39.1579 18.3691 39.1578 18.3718 39.1577L22.6943 38.9076C22.7446 38.9048 22.7899 38.8752 22.8131 38.8299L30.3286 24.2121C30.3518 24.167 30.35 24.1131 30.3241 24.0698Z" fill="#FF3344"/>
<path fill-rule="evenodd" clip-rule="evenodd" d="M37.788 30.5596C37.7455 30.7761 37.6675 30.9654 37.5545 31.1241C37.4566 31.2667 37.3242 31.3942 37.1614 31.5026C37.0068 31.6057 36.7935 31.6578 36.5275 31.6578H33.5468L34.1772 27.6622H37.2029C37.4612 27.6622 37.6494 27.7142 37.7621 27.8162C37.8851 27.928 37.9746 28.0542 38.0268 28.1865C38.0815 28.3413 38.1023 28.53 38.0899 28.7326L37.788 30.5596ZM41.907 27.207C41.859 26.7579 41.757 26.359 41.6036 26.0207C41.4498 25.6825 41.2562 25.3927 41.0284 25.1594C40.8033 24.93 40.5671 24.7388 40.3232 24.5892C39.7324 24.2471 39.0303 24.049 38.2275 24H31.123C31.0548 24 30.9964 24.0504 30.9852 24.1191L28.6914 38.1497C28.6843 38.1925 28.6969 38.2361 28.7252 38.2685C28.7517 38.2988 28.7896 38.3158 28.8292 38.3158C28.832 38.3158 28.8343 38.3157 28.8371 38.3156L32.4088 38.1074C32.4741 38.1037 32.528 38.0541 32.5387 37.9882L32.9656 35.3444L36.4425 35.3441C37.2334 35.2956 37.9801 35.0987 38.6615 34.7592C39.251 34.4662 39.826 33.9944 40.371 33.3574C40.9209 32.7143 41.3042 31.799 41.5095 30.6365L41.8361 28.7561C41.9307 28.1746 41.9548 27.6534 41.907 27.207Z" fill="#FF3344"/>
<path fill-rule="evenodd" clip-rule="evenodd" d="M55.858 24H52.2439C52.1748 24 52.1155 24.0531 52.1042 24.1254L50.8166 32.3081L48.0251 24.0991C48.0047 24.0398 47.9516 24 47.8918 24H44.2777C44.2086 24 44.1493 24.0531 44.138 24.1254L41.9326 38.1408C41.9254 38.1859 41.9381 38.2319 41.9669 38.266C41.9938 38.2978 42.0322 38.3158 42.0722 38.3158C42.075 38.3158 45.7497 38.0933 45.7497 38.0933C45.8159 38.0893 45.8706 38.0372 45.8814 37.9678L46.8033 32.0535L48.7504 37.8037C48.7717 37.8666 48.8287 37.9047 48.8918 37.903L53.7918 37.6061C53.8579 37.6021 53.9126 37.5502 53.9234 37.4807L55.9977 24.1747C56.0046 24.1311 55.993 24.0866 55.9659 24.0531C55.9391 24.0194 55.8995 24 55.858 24Z" fill="#FF3344"/>
<path fill-rule="evenodd" clip-rule="evenodd" d="M15.4135 24.0521C15.3858 24.019 15.3451 24 15.3022 24H11.5716C11.5003 24 11.4393 24.0521 11.4275 24.1232L8.82968 39.8282C8.82224 39.8724 8.83533 39.9176 8.86508 39.9511C8.89277 39.9824 8.93245 40 8.97377 40C8.97666 40 8.97928 39.9999 8.98204 39.9998L12.7726 39.7814C12.8407 39.7775 12.8974 39.7263 12.9085 39.6582L15.4463 24.1715C15.4535 24.1287 15.4415 24.0851 15.4135 24.0521Z" fill="#FF3344"/>
<path fill-rule="evenodd" clip-rule="evenodd" d="M12.1379 24H8.00099C8.00099 24 7.96833 24.3376 8.27899 24.4156C8.58965 24.4935 11.3122 25.0304 10.9361 27.3684C10.9361 27.3597 12.1053 26.1734 12.1053 26.1734L12.1379 24Z" fill="#FF3344"/>
</svg>
