<?xml version="1.0" encoding="UTF-8"?>
<svg width="24px" height="24px" viewBox="0 0 24 24" version="1.1" xmlns="http://www.w3.org/2000/svg" xmlns:xlink="http://www.w3.org/1999/xlink">
    <title>au</title>
    <defs>
        <rect id="path-1" x="0" y="0" width="20" height="14" rx="2"></rect>
        <linearGradient x1="50%" y1="0%" x2="50%" y2="100%" id="linearGradient-3">
            <stop stop-color="#FF2E3B" offset="0%"></stop>
            <stop stop-color="#FC0D1B" offset="100%"></stop>
        </linearGradient>
        <linearGradient x1="50%" y1="0%" x2="50%" y2="100%" id="linearGradient-4">
            <stop stop-color="#FF2E3B" offset="0%"></stop>
            <stop stop-color="#FC0D1B" offset="100%"></stop>
        </linearGradient>
    </defs>
    <g id="Assets" stroke="none" stroke-width="1" fill="none" fill-rule="evenodd">
        <g id="Windows-Assets" transform="translate(-61.000000, -232.000000)">
            <g id="icon_countryflag_australia" transform="translate(63.000000, 237.000000)">
                <mask id="mask-2" fill="white">
                    <use xlink:href="#path-1"></use>
                </mask>
                <use id="Rectangle" fill="#FFFFFF" xlink:href="#path-1"></use>
                <rect id="Rectangle-2" fill="#0937A1" mask="url(#mask-2)" x="0" y="0" width="20" height="14"></rect>
                <circle id="Oval-3" fill="#FFFFFF" mask="url(#mask-2)" cx="16.5" cy="4.5" r="1"></circle>
                <circle id="Oval-3" fill="#FFFFFF" mask="url(#mask-2)" cx="13.5" cy="2.5" r="1"></circle>
                <circle id="Oval-3" fill="#FFFFFF" mask="url(#mask-2)" cx="11.5" cy="6.5" r="1"></circle>
                <circle id="Oval-3" fill="#FFFFFF" mask="url(#mask-2)" cx="14.5" cy="10.5" r="1"></circle>
                <circle id="Oval-3" fill="#FFFFFF" mask="url(#mask-2)" cx="4.11010742" cy="11.0817871" r="1"></circle>
                <g id="Group-3" mask="url(#mask-2)" stroke="#FFFFFF" stroke-linejoin="round" stroke-width="0.5">
                    <g transform="translate(-2.000000, -3.000000)" id="Rectangle-36">
                        <path d="M5.29681391,2.75 L6.68351738,2.75 L6.68351738,5.41011043 L10.2303313,5.41011043 L10.2303313,6.79681391 L6.68351738,6.79681391 L6.68351738,9.45692434 L5.29681391,9.45692434 L5.29681391,6.79681391 L1.75,6.79681391 L1.75,5.41011043 L5.29681391,5.41011043 L5.29681391,2.75 Z" fill="url(#linearGradient-3)"></path>
                        <path d="M6.68351738,1.86329652 L6.68351738,5.41011043 L10.2303313,5.41011043 L10.2303313,6.79681391 L6.68351738,6.79681391 L6.68351738,10.3436278 L5.29681391,10.3436278 L5.29681391,6.79681391 L1.75,6.79681391 L1.75,5.41011043 L5.29681391,5.41011043 L5.29681391,1.86329652 L6.68351738,1.86329652 Z" fill="url(#linearGradient-4)" transform="translate(5.990166, 6.103462) rotate(-315.000000) translate(-5.990166, -6.103462) "></path>
                    </g>
                </g>
                <rect id="Rectangle" stroke-opacity="0.2" stroke="#000000" stroke-width="0.5" opacity="0.699999988" mask="url(#mask-2)" x="0.25" y="0.25" width="19.5" height="13.5" rx="2"></rect>
            </g>
        </g>
    </g>
</svg>