<?xml version="1.0" encoding="UTF-8"?>
<svg width="24px" height="24px" viewBox="0 0 24 24" version="1.1" xmlns="http://www.w3.org/2000/svg" xmlns:xlink="http://www.w3.org/1999/xlink">
    <title>ch</title>
    <defs>
        <rect id="path-1" x="0" y="0" width="20" height="14" rx="2"></rect>
    </defs>
    <g id="Assets" stroke="none" stroke-width="1" fill="none" fill-rule="evenodd">
        <g id="Windows-Assets" transform="translate(-155.000000, -171.000000)">
            <g id="icon_countryflag_switzerland" transform="translate(157.000000, 176.000000)">
                <mask id="mask-2" fill="white">
                    <use xlink:href="#path-1"></use>
                </mask>
                <g id="Rectangle"></g>
                <rect id="Flag-color" fill="#E64552" mask="url(#mask-2)" x="0" y="0" width="20" height="14"></rect>
                <path d="M8.66666667,8.33333333 L6.32698568,8.33333333 C6.14639647,8.33333333 6,8.18996175 6,8.00634766 L6,5.99365234 C6,5.81306314 6.14337158,5.66666667 6.32698568,5.66666667 L8.66666667,5.66666667 L8.66666667,3.32698568 C8.66666667,3.14639647 8.81003825,3 8.99365234,3 L11.0063477,3 C11.1869369,3 11.3333333,3.14337158 11.3333333,3.32698568 L11.3333333,5.66666667 L13.6730143,5.66666667 C13.8536035,5.66666667 14,5.81003825 14,5.99365234 L14,8.00634766 C14,8.18693686 13.8566284,8.33333333 13.6730143,8.33333333 L11.3333333,8.33333333 L11.3333333,10.6730143 C11.3333333,10.8536035 11.1899618,11 11.0063477,11 L8.99365234,11 C8.81306314,11 8.66666667,10.8566284 8.66666667,10.6730143 L8.66666667,8.33333333 Z" id="Rectangle-78" fill="#FFFFFF" mask="url(#mask-2)"></path>
                <rect id="Rectangle" stroke-opacity="0.2" stroke="#000000" stroke-width="0.5" opacity="0.699999988" mask="url(#mask-2)" x="0.25" y="0.25" width="19.5" height="13.5" rx="2"></rect>
            </g>
        </g>
    </g>
</svg>