<?xml version="1.0" encoding="UTF-8"?>
<svg width="24px" height="24px" viewBox="0 0 24 24" version="1.1" xmlns="http://www.w3.org/2000/svg" xmlns:xlink="http://www.w3.org/1999/xlink">
    <title>hk</title>
    <defs>
        <rect id="path-1" x="0" y="0" width="20" height="14" rx="2"></rect>
        <rect id="path-3" x="0" y="0.428571429" width="22" height="16" rx="2"></rect>
    </defs>
    <g id="Assets" stroke="none" stroke-width="1" fill="none" fill-rule="evenodd">
        <g id="Windows-Assets" transform="translate(-217.000000, -287.000000)">
            <g id="icon_countryflag_britain-copy-2" transform="translate(219.000000, 292.000000)">
                <mask id="mask-2" fill="white">
                    <use xlink:href="#path-1"></use>
                </mask>
                <g id="Rectangle"></g>
                <g id="HK" mask="url(#mask-2)">
                    <g transform="translate(-1.000000, -1.428571)">
                        <mask id="mask-4" fill="white">
                            <use xlink:href="#path-3"></use>
                        </mask>
                        <use id="Mask" stroke="none" fill="#FFFFFF" fill-rule="evenodd" xlink:href="#path-3"></use>
                        <rect id="Rectangle-2" stroke="none" fill="#F0371D" fill-rule="evenodd" mask="url(#mask-4)" x="0" y="0.428571429" width="22" height="16"></rect>
                        <path d="M11.9778394,8.45462539 C12.7967061,8.18720635 13.7481141,8.86001851 14.1028686,9.95739341 C14.4576232,11.0547683 14.081386,12.1611524 13.2625193,12.4285714 C12.9577763,11.4858992 12.4331041,11.553132 12.2865346,11.0997433 C12.1067112,10.5434892 12.0610648,10.4022896 12.2990094,9.4481119 C12.536954,8.49393419 11.5740523,8.586491 11.9778394,8.45462539 Z M10.3672246,9.4628515 C11.3436387,9.39544401 10.9585044,8.50361443 11.2080585,8.84884307 C11.7141459,9.5489552 11.3715026,10.6663101 10.4427431,11.3445251 C9.51398361,12.0227401 8.35081036,12.0049889 7.84472291,11.3048768 C8.64255029,10.7222733 8.41679906,10.2415187 8.80052297,9.96130909 C9.27130671,9.61752516 9.39081053,9.53025899 10.3672246,9.4628515 Z M9.43248594,10.3912545 C9.31639101,10.4760313 9.29065495,10.6393487 9.37500286,10.7560341 C9.45935077,10.8727195 9.6218418,10.8985864 9.73793673,10.8138095 C9.85403167,10.7290326 9.87976772,10.5657152 9.79541981,10.4490299 C9.7110719,10.3323445 9.54858087,10.3064776 9.43248594,10.3912545 Z M13.0554776,10.2994421 C12.9189998,10.344012 12.8443109,10.4913427 12.8886552,10.6285146 C12.9329995,10.7656865 13.0795848,10.8407552 13.2160626,10.7961854 C13.3525403,10.7516156 13.4272293,10.6042848 13.382885,10.4671129 C13.3385406,10.3299411 13.1919554,10.2548723 13.0554776,10.2994421 Z M7.23382133,5.77880092 C8.03164871,6.36140438 8.41679906,5.99704893 8.80052297,6.27725851 C9.27130671,6.62104245 9.39081053,6.70830862 9.75632302,7.62082621 C10.1218355,8.5333438 10.8467111,7.889606 10.5971569,8.23483464 C10.0910695,8.93494677 8.92789622,8.95269792 7.99913675,8.27448293 C7.07037727,7.59626795 6.72773389,6.47891305 7.23382133,5.77880092 Z M13.9213443,6.03005673 C15.0693541,6.03005673 16,6.73159085 16,7.59697704 C15.0138311,7.59697704 14.9153171,8.1192838 14.4410082,8.1192838 C13.8590875,8.1192838 13.7113727,8.1192838 12.8820164,7.59697704 C12.0526602,7.07467027 11.8426886,8.0237031 11.8426886,7.59697704 C11.8426886,6.73159085 12.7733344,6.03005673 13.9213443,6.03005673 Z M8.22604307,7.07198351 C8.14169516,7.18866887 8.16743121,7.35198627 8.28352615,7.43676315 C8.39962108,7.52154002 8.56211211,7.49567308 8.64646002,7.37898773 C8.73080793,7.26230237 8.70507188,7.09898497 8.58897694,7.0142081 C8.47288201,6.92943122 8.31039098,6.95529816 8.22604307,7.07198351 Z M10.1490305,4.98996086 C10.5037851,3.89258596 11.4551931,3.2197738 12.2740598,3.48719284 C11.9693168,4.42986504 12.4331041,4.68543565 12.2865346,5.13882427 C12.1067112,5.69507836 12.0610648,5.836278 11.3105498,6.46765237 C10.5600349,7.09902674 11.393167,7.59300449 10.9893799,7.46113888 C10.1705132,7.19371984 9.79427597,6.08733576 10.1490305,4.98996086 Z M14.1811763,6.87579629 C14.037675,6.87579629 13.9213443,6.99271865 13.9213443,7.13694968 C13.9213443,7.28118071 14.037675,7.39810306 14.1811763,7.39810306 C14.3246775,7.39810306 14.4410082,7.28118071 14.4410082,7.13694968 C14.4410082,6.99271865 14.3246775,6.87579629 14.1811763,6.87579629 Z M11.0295992,5.00293713 C10.9852549,5.14010899 11.0599438,5.28743975 11.1964216,5.33200959 C11.3328994,5.37657943 11.4794846,5.30151066 11.523829,5.1643388 C11.5681733,5.02716693 11.4934844,4.87983617 11.3570066,4.83526634 C11.2205288,4.7906965 11.0739435,4.86576527 11.0295992,5.00293713 Z" id="Oval-145" stroke="none" fill="#FFFFFF" fill-rule="evenodd" mask="url(#mask-4)"></path>
                    </g>
                </g>
            </g>
        </g>
    </g>
</svg>