<?xml version="1.0" encoding="UTF-8"?>
<svg width="24px" height="24px" viewBox="0 0 24 24" version="1.1" xmlns="http://www.w3.org/2000/svg" xmlns:xlink="http://www.w3.org/1999/xlink">
    <title>sk</title>
    <defs>
        <rect id="path-1" x="0" y="0" width="20" height="15" rx="2"></rect>
        <path d="M0.474686921,0.658140063 C0.488666948,0.294659343 0.797847549,0 1.15814006,0 L4.17519327,0 C4.53867399,0 4.84478901,0.297847549 4.85864641,0.658140063 L4.97468692,3.67519327 C4.98866695,4.03867399 4.76774057,4.53241285 4.49370142,4.76730355 L3.43068727,5.67845853 C3.00873034,6.0401359 2.3223753,6.03822645 1.90264606,5.67845853 L0.839631915,4.76730355 C0.56001093,4.52762842 0.344789008,4.03548578 0.358646413,3.67519327 L0.474686921,0.658140063 Z" id="path-3"></path>
    </defs>
    <g id="Assets" stroke="none" stroke-width="1" fill="none" fill-rule="evenodd">
        <g id="Windows-Assets" transform="translate(-124.000000, -288.000000)">
            <g id="icon_countryflag_slovakia" transform="translate(126.000000, 292.000000)">
                <mask id="mask-2" fill="white">
                    <use xlink:href="#path-1"></use>
                </mask>
                <g id="Rectangle"></g>
                <g id="Group-8" mask="url(#mask-2)">
                    <g transform="translate(10.000000, 7.500000) rotate(-180.000000) translate(-10.000000, -7.500000) " id="Flag-color">
                        <rect fill="#E64552" x="0" y="0" width="20" height="5"></rect>
                        <rect fill="#FFFFFF" x="0" y="10" width="20" height="5"></rect>
                        <rect fill="#316CBC" x="0" y="5" width="20" height="5"></rect>
                    </g>
                </g>
                <g id="Rectangle-1693" mask="url(#mask-2)">
                    <g transform="translate(3.166667, 4.500000)">
                        <mask id="mask-4" fill="white">
                            <use xlink:href="#path-3"></use>
                        </mask>
                        <path stroke="#FFFFFF" stroke-width="0.666666667" d="M4.17519327,-0.333333333 C4.44499064,-0.333333333 4.69425695,-0.224281885 4.87842454,-0.0469353141 C5.06326589,0.131060059 5.18141066,0.37693599 5.19173347,0.645329023 L5.19173347,0.645329023 L5.30777398,3.66238223 C5.32514837,4.1141163 5.05140078,4.72830145 4.71063188,5.02038908 L4.71063188,5.02038908 L3.64761773,5.93154407 C3.3770734,6.1634392 3.02269016,6.28233432 2.66693019,6.28233432 C2.31026946,6.28233432 1.95550366,6.16279097 1.68571561,5.93154407 L1.68571561,5.93154407 L0.622701457,5.02038908 C0.274991518,4.72235199 0.0083373633,4.110154 0.0255593545,3.66238223 L0.0255593545,3.66238223 L0.141599862,0.645329023 C0.151972174,0.375648911 0.27043365,0.130707418 0.454513207,-0.0465543778 C0.639442904,-0.224634827 0.889630481,-0.333333333 1.15814006,-0.333333333 L1.15814006,-0.333333333 Z"></path>
                        <path d="M2.33333333,3.49682617 C2.33333333,3.40653157 2.26772054,3.33333333 2.15914663,3.33333333 L1.50752004,3.33333333 C1.41131938,3.33333333 1.33333333,3.25158691 1.33333333,3.16510518 L1.33333333,2.83489482 C1.33333333,2.74198497 1.39894613,2.66666667 1.50752004,2.66666667 L2.15914663,2.66666667 C2.25534729,2.66666667 2.33333333,2.58492025 2.33333333,2.49843852 L2.33333333,2.16822815 C2.33333333,2.07531831 2.25158691,2 2.16510518,2 L1.83489482,2 C1.74198497,2 1.66666667,1.91825358 1.66666667,1.83177185 L1.66666667,1.50156148 C1.66666667,1.40865164 1.74841309,1.33333333 1.83489482,1.33333333 L2.16510518,1.33333333 C2.25801503,1.33333333 2.33333333,1.25158691 2.33333333,1.16510518 L2.33333333,0.834894816 C2.33333333,0.741984975 2.41507975,0.666666667 2.50156148,0.666666667 L2.83177185,0.666666667 C2.92468169,0.666666667 3,0.748413086 3,0.834894816 L3,1.16510518 C3,1.25801503 3.08174642,1.33333333 3.16822815,1.33333333 L3.49843852,1.33333333 C3.59134836,1.33333333 3.66666667,1.41507975 3.66666667,1.50156148 L3.66666667,1.83177185 C3.66666667,1.92468169 3.58492025,2 3.49843852,2 L3.16822815,2 C3.07531831,2 3,2.08174642 3,2.16822815 L3,2.49843852 C3,2.59134836 3.06561279,2.66666667 3.17418671,2.66666667 L3.82581329,2.66666667 C3.92201396,2.66666667 4,2.74841309 4,2.83489482 L4,3.16510518 C4,3.25801503 3.93438721,3.33333333 3.82581329,3.33333333 L3.17418671,3.33333333 C3.07798604,3.33333333 3,3.40501912 3,3.49682617 L3,4.50317383 C3,4.59346843 2.91825358,4.66666667 2.83177185,4.66666667 L2.50156148,4.66666667 C2.40865164,4.66666667 2.33333333,4.59498088 2.33333333,4.50317383 L2.33333333,3.49682617 Z" id="Rectangle-1694" stroke="none" fill="#FFFFFF" fill-rule="evenodd" mask="url(#mask-4)"></path>
                        <path d="M2.66666667,4.33333333 C2.93240013,4.33333333 3.16182054,4.48880796 3.26892548,4.71375479 C4.07931064,4.84066105 4.66666667,5.21936777 4.66666667,5.66666667 C4.66666667,6.21895142 3.77123617,6.66666667 2.66666667,6.66666667 C1.56209717,6.66666667 0.666666667,6.21895142 0.666666667,5.66666667 C0.666666667,5.21936777 1.25402269,4.84066105 2.06413787,4.71284495 C2.17151279,4.48880796 2.40093321,4.33333333 2.66666667,4.33333333 Z" id="Oval-215" stroke="none" fill="#316CBC" fill-rule="evenodd" mask="url(#mask-4)"></path>
                    </g>
                </g>
                <rect id="Rectangle" stroke-opacity="0.2" stroke="#000000" stroke-width="0.5" opacity="0.699999988" mask="url(#mask-2)" x="0.25" y="0.25" width="19.5" height="14.5" rx="2"></rect>
            </g>
        </g>
    </g>
</svg>