<?xml version="1.0" encoding="UTF-8"?>
<svg width="24px" height="24px" viewBox="0 0 24 24" version="1.1" xmlns="http://www.w3.org/2000/svg" xmlns:xlink="http://www.w3.org/1999/xlink">
    <title>uk</title>
    <defs>
        <rect id="path-1" x="0" y="0" width="20" height="14" rx="2"></rect>
    </defs>
    <g id="Assets" stroke="none" stroke-width="1" fill="none" fill-rule="evenodd">
        <g id="Windows-Assets" transform="translate(-186.000000, -287.000000)">
            <g id="icon_countryflag_britain-copy" transform="translate(188.000000, 292.000000)">
                <mask id="mask-2" fill="white">
                    <use xlink:href="#path-1"></use>
                </mask>
                <g id="Rectangle"></g>
                <rect id="Flag-color" fill="#0955A1" mask="url(#mask-2)" x="0" y="0" width="20" height="14"></rect>
                <g id="Group-2" mask="url(#mask-2)" fill-rule="nonzero">
                    <g transform="translate(-3.000000, -3.000000)">
                        <rect id="Rectangle-17-Copy-11" fill="#FFFFFF" transform="translate(13.147716, 9.821971) rotate(35.000000) translate(-13.147716, -9.821971) " x="-1.8522844" y="8.33467149" width="30" height="2.97459879"></rect>
                        <polygon id="Rectangle-17-Copy-14" fill="#E81818" transform="translate(12.581424, 10.013223) rotate(35.000000) translate(-12.581424, -10.013223) " points="-2.41857606 9.51322257 27.5814239 9.51322257 27.5814239 10.2693131 -2.41857606 10.2693131"></polygon>
                        <rect id="Rectangle-17-Copy-13" fill="#FFFFFF" transform="translate(13.147716, 9.821971) scale(-1, 1) rotate(35.000000) translate(-13.147716, -9.821971) " x="-1.8522844" y="8.33467149" width="30" height="2.97459879"></rect>
                        <polygon id="Rectangle-17-Copy-15" fill="#E81818" transform="translate(12.581424, 10.013223) scale(-1, 1) rotate(35.000000) translate(-12.581424, -10.013223) " points="-2.41857606 9.51322257 27.5814239 9.51322257 27.5814239 10.2693131 -2.41857606 10.2693131"></polygon>
                        <rect id="Rectangle-17-Copy" fill="#E81818" x="1.00735505" y="9" width="24" height="2"></rect>
                        <rect id="Rectangle-17-Copy-7" fill="#E81818" transform="translate(13.007355, 10.000000) rotate(-90.000000) translate(-13.007355, -10.000000) " x="4.00735505" y="9" width="18" height="2"></rect>
                        <rect id="Rectangle-35" fill="#F5F9FC" x="1.00735505" y="8" width="11" height="1"></rect>
                        <rect id="Rectangle-35-Copy-2" fill="#F5F9FC" x="14.0073551" y="8" width="11" height="1"></rect>
                        <rect id="Rectangle-37" fill="#F5F9FC" x="11.0073551" y="1" width="1" height="8"></rect>
                        <rect id="Rectangle-37-Copy-2" fill="#F5F9FC" x="11.0073551" y="11" width="1" height="8"></rect>
                        <rect id="Rectangle-37-Copy" fill="#F5F9FC" x="14.0073551" y="1" width="1" height="8"></rect>
                        <rect id="Rectangle-37-Copy-3" fill="#F5F9FC" x="14.0073551" y="11" width="1" height="8"></rect>
                        <rect id="Rectangle-35-Copy" fill="#F5F9FC" x="1.00735505" y="11" width="11" height="1"></rect>
                        <rect id="Rectangle-35-Copy-3" fill="#F5F9FC" x="14.0073551" y="11" width="11" height="1"></rect>
                    </g>
                </g>
                <rect id="Rectangle" stroke-opacity="0.2" stroke="#000000" stroke-width="0.5" opacity="0.699999988" mask="url(#mask-2)" x="0.25" y="0.25" width="19.5" height="13.5" rx="2"></rect>
            </g>
        </g>
    </g>
</svg>