<?xml version="1.0" encoding="UTF-8"?>
<svg width="24px" height="24px" viewBox="0 0 24 24" version="1.1" xmlns="http://www.w3.org/2000/svg" xmlns:xlink="http://www.w3.org/1999/xlink">
    <title>pt</title>
    <defs>
        <rect id="path-1" x="0" y="0" width="20" height="14" rx="2"></rect>
    </defs>
    <g id="Assets" stroke="none" stroke-width="1" fill="none" fill-rule="evenodd">
        <g id="Windows-Assets" transform="translate(-30.000000, -260.000000)">
            <g id="icon_countryflag_portugal" transform="translate(32.000000, 266.000000)">
                <mask id="mask-2" fill="white">
                    <use xlink:href="#path-1"></use>
                </mask>
                <use id="Rectangle" fill="#FA2F38" xlink:href="#path-1"></use>
                <rect id="Flag-color" fill="#5DB55F" mask="url(#mask-2)" x="0" y="0" width="8" height="15"></rect>
                <g id="Symbol" mask="url(#mask-2)">
                    <g transform="translate(4.000000, 3.000000)">
                        <circle id="Oval-5" stroke="none" fill="#FFD34C" fill-rule="evenodd" cx="4" cy="4" r="4"></circle>
                        <polygon id="Rectangle-139" stroke="none" fill="#16467A" fill-rule="evenodd" points="2.19000244 3.29998779 5.62815348 3.29998779 5.62815348 4.13232422 4.76861572 4.13232422 3.90907796 5.79699707 3.0495402 4.13232422 2.19000244 4.13232422"></polygon>
                        <path d="M5.30606219,2.13829068 L5.40786061,5.42712108 C5.3832849,5.71269677 5.24364124,5.97011902 5.04066277,6.15690875 C4.83813964,6.34327944 4.57108365,6.46067301 4.28567245,6.46067301 L4.28567245,6.46067301 L3.52576909,6.46067301 C3.23985552,6.46067301 2.97209279,6.34424925 2.76929032,6.1576215 C2.56709254,5.97155021 2.42831312,5.71451509 2.40358093,5.42712108 L2.40358093,5.42712108 L2.14694277,2.44492341 L5.30606219,2.13829068 Z" id="Rectangle-137" stroke="#FA2F38" stroke-width="0.666666667" fill="none"></path>
                    </g>
                </g>
                <rect id="Rectangle" stroke-opacity="0.2" stroke="#000000" stroke-width="0.5" opacity="0.699999988" mask="url(#mask-2)" x="0.25" y="0.25" width="19.5" height="13.5" rx="2"></rect>
            </g>
        </g>
    </g>
</svg>