<?xml version="1.0" encoding="UTF-8"?>
<svg width="24px" height="24px" viewBox="0 0 24 24" version="1.1" xmlns="http://www.w3.org/2000/svg" xmlns:xlink="http://www.w3.org/1999/xlink">
    <title>sg</title>
    <defs>
        <rect id="path-1" x="0" y="0" width="20" height="14" rx="2"></rect>
    </defs>
    <g id="Assets" stroke="none" stroke-width="1" fill="none" fill-rule="evenodd">
        <g id="Windows-Assets" transform="translate(-217.000000, -232.000000)">
            <g id="icon_countryflag_singapore" transform="translate(219.000000, 237.000000)">
                <mask id="mask-2" fill="white">
                    <use xlink:href="#path-1"></use>
                </mask>
                <g id="Rectangle"></g>
                <rect id="Flag-color" fill="#E03D52" mask="url(#mask-2)" x="0" y="0" width="20" height="7"></rect>
                <circle id="Oval-12" fill="#FFFFFF" mask="url(#mask-2)" cx="5.5" cy="2.5" r="1"></circle>
                <circle id="Oval-12" fill="#FFFFFF" mask="url(#mask-2)" cx="6.5" cy="3.5" r="1"></circle>
                <circle id="Oval-12" fill="#FFFFFF" mask="url(#mask-2)" cx="5.5" cy="4.5" r="1"></circle>
                <path d="M3.5,1 C3.76151232,1 4.01364635,1.04015319 4.25057321,1.11463068 C3.23592684,1.4327543 2.5,2.38043469 2.5,3.5 C2.5,4.61956531 3.23592684,5.5672457 4.25042097,5.88568161 C4.01364635,5.95984681 3.76151232,6 3.5,6 C2.11928813,6 1,4.88071187 1,3.5 C1,2.11928813 2.11928813,1 3.5,1 Z" id="Combined-Shape" fill="#FFFFFF" mask="url(#mask-2)"></path>
                <polygon id="Flag-color" fill="#FFFFFF" mask="url(#mask-2)" points="0 7 20 7 20 14 0 14"></polygon>
                <rect id="Rectangle" stroke-opacity="0.2" stroke="#000000" stroke-width="0.5" opacity="0.699999988" mask="url(#mask-2)" x="0.25" y="0.25" width="19.5" height="13.5" rx="2"></rect>
            </g>
        </g>
    </g>
</svg>