<svg width="42" height="14" viewBox="0 0 42 14" fill="none" xmlns="http://www.w3.org/2000/svg">
<path fill-rule="evenodd" clip-rule="evenodd" d="M3.41628 0H0.000858467C0.000858467 0 -0.0275914 0.295391 0.243067 0.363684C0.254349 0.366525 0.269282 0.370064 0.287518 0.374385L0.287518 0.374386C0.706779 0.47374 2.87204 0.986853 2.55801 2.94737C2.55801 2.94452 2.69983 2.79822 2.87764 2.61591L1.02739 13.8497C1.0209 13.8883 1.03231 13.9279 1.05823 13.9572C1.08235 13.9846 1.11692 14 1.15292 14L1.16012 13.9998L4.46258 13.8087C4.52198 13.8053 4.57131 13.7605 4.58103 13.7009L6.79207 0.150101C6.79831 0.112636 6.78787 0.0744422 6.7635 0.0456141C6.73938 0.0166644 6.70386 0 6.66653 0H3.60515H3.41628ZM20.033 0C20.0766 0 20.117 0.0231938 20.1397 0.061093C20.1623 0.0989922 20.1638 0.146097 20.1436 0.185551L13.5958 12.9761C13.5756 13.0158 13.5361 13.0416 13.4923 13.0441L9.72638 13.2629L9.71933 13.2632C9.65961 13.2632 9.60801 13.22 9.59684 13.1599L7.18135 0.150521C7.17453 0.113339 7.18429 0.0749615 7.20792 0.046029C7.23155 0.0168574 7.26693 0 7.30395 0H10.5663C10.6267 0 10.6783 0.0439965 10.689 0.104611L12.211 8.75495L16.6823 0.0680272C16.7039 0.0263023 16.7463 0 16.7929 0H20.033ZM29.7122 1.76814C29.8458 2.06409 29.9347 2.41318 29.9765 2.80612C30.0182 3.19672 29.9972 3.6528 29.9147 4.16156L29.6303 5.80695C29.4514 6.82412 29.1174 7.62495 28.6383 8.18768C28.1635 8.74512 27.6625 9.15793 27.149 9.41426C26.5552 9.71138 25.9047 9.88363 25.2156 9.92607L22.1865 9.92631L21.8145 12.2397C21.8052 12.2973 21.7582 12.3407 21.7013 12.344L18.5895 12.5261L18.5826 12.5263C18.5481 12.5263 18.5151 12.5114 18.492 12.4849C18.4674 12.4566 18.4564 12.4184 18.4626 12.381L20.461 0.104174C20.4708 0.0440918 20.5217 0 20.5811 0H26.7708C27.4702 0.0429161 28.082 0.216226 28.5967 0.515581C28.8092 0.646445 29.015 0.813759 29.211 1.01447C29.4095 1.21858 29.5782 1.4722 29.7122 1.76814ZM41.8765 0H38.7278C38.6676 0 38.616 0.0464552 38.6061 0.109758L37.4843 7.26956L35.0522 0.0867165C35.0345 0.0348105 34.9882 0 34.9361 0H31.7873C31.7271 0 31.6755 0.0464552 31.6656 0.109758L29.7442 12.3732C29.738 12.4126 29.749 12.4529 29.7741 12.4827C29.7975 12.5106 29.831 12.5263 29.8659 12.5263C29.8683 12.5263 33.0698 12.3316 33.0698 12.3316C33.1275 12.3281 33.1752 12.2825 33.1846 12.2218L33.9878 7.04683L35.6842 12.0782C35.7027 12.1332 35.7523 12.1666 35.8073 12.1651L40.0764 11.9053C40.134 11.9018 40.1817 11.8564 40.1911 11.7955L41.9983 0.152869C42.0043 0.114713 41.9942 0.075815 41.9706 0.0464552C41.9472 0.0169717 41.9127 0 41.8765 0ZM26.1843 6.23376C26.2827 6.0949 26.3507 5.92924 26.3877 5.73982L26.6507 4.14122C26.6615 3.96392 26.6434 3.79884 26.5957 3.66339C26.5503 3.54757 26.4723 3.43716 26.3651 3.33934C26.267 3.2501 26.103 3.2046 25.8779 3.2046H23.2418L22.6926 6.70078H25.2895C25.5212 6.70078 25.7071 6.65516 25.8418 6.56498C25.9836 6.4701 26.099 6.35851 26.1843 6.23376Z" fill="#B4C1CC"/>
</svg>
