<svg width="13" height="12" viewBox="0 0 13 12" fill="none" xmlns="http://www.w3.org/2000/svg">
<path d="M8.54811 0C8.92702 0 9.29225 0.0488281 9.64381 0.146484C9.99538 0.244141 10.3235 0.382812 10.6282 0.5625C10.9329 0.742188 11.2102 0.958984 11.4602 1.21289C11.7141 1.46289 11.9309 1.74023 12.1106 2.04492C12.2903 2.34961 12.429 2.67773 12.5266 3.0293C12.6243 3.38086 12.6731 3.74609 12.6731 4.125C12.6731 4.50391 12.6243 4.86914 12.5266 5.2207C12.429 5.57227 12.2903 5.90039 12.1106 6.20508C11.9309 6.50977 11.7141 6.78906 11.4602 7.04297C11.2102 7.29297 10.9329 7.50781 10.6282 7.6875C10.3235 7.86719 9.99538 8.00586 9.64381 8.10352C9.29225 8.20117 8.92702 8.25 8.54811 8.25C8.05983 8.25 7.59108 8.16797 7.14186 8.00391C6.69655 7.83984 6.28639 7.60352 5.91139 7.29492L1.31178 11.8887C1.23756 11.9629 1.14967 12 1.04811 12C0.946548 12 0.858658 11.9629 0.784439 11.8887C0.71022 11.8145 0.673111 11.7266 0.673111 11.625C0.673111 11.5234 0.71022 11.4355 0.784439 11.3613L5.37819 6.76172C5.0696 6.38672 4.83327 5.97656 4.6692 5.53125C4.50514 5.08203 4.42311 4.61328 4.42311 4.125C4.42311 3.74609 4.47194 3.38086 4.5696 3.0293C4.66725 2.67773 4.80592 2.34961 4.98561 2.04492C5.1653 1.74023 5.38014 1.46289 5.63014 1.21289C5.88405 0.958984 6.16335 0.742188 6.46803 0.5625C6.77272 0.382812 7.10085 0.244141 7.45241 0.146484C7.80397 0.0488281 8.1692 0 8.54811 0ZM8.54811 7.5C9.01295 7.5 9.45045 7.41211 9.86061 7.23633C10.2708 7.05664 10.6282 6.81445 10.9329 6.50977C11.2376 6.20508 11.4778 5.84766 11.6536 5.4375C11.8333 5.02734 11.9231 4.58984 11.9231 4.125C11.9231 3.66016 11.8333 3.22266 11.6536 2.8125C11.4778 2.40234 11.2376 2.04492 10.9329 1.74023C10.6282 1.43555 10.2708 1.19531 9.86061 1.01953C9.45045 0.839844 9.01295 0.75 8.54811 0.75C8.08327 0.75 7.64577 0.839844 7.23561 1.01953C6.82545 1.19531 6.46803 1.43555 6.16335 1.74023C5.85866 2.04492 5.61647 2.40234 5.43678 2.8125C5.261 3.22266 5.17311 3.66016 5.17311 4.125C5.17311 4.58984 5.261 5.02734 5.43678 5.4375C5.61647 5.84766 5.85866 6.20508 6.16335 6.50977C6.46803 6.81445 6.82545 7.05664 7.23561 7.23633C7.64577 7.41211 8.08327 7.5 8.54811 7.5Z" fill="black"/>
</svg>
