<svg width="20" height="20" viewBox="0 0 20 20" fill="none" xmlns="http://www.w3.org/2000/svg">
<path d="M10.0925 12.2863C11.3548 12.2863 12.3782 11.2629 12.3782 10.0006C12.3782 8.73819 11.3548 7.71484 10.0925 7.71484C8.83011 7.71484 7.80676 8.73819 7.80676 10.0006C7.80676 11.2629 8.83011 12.2863 10.0925 12.2863Z" stroke="#96A7BB" stroke-width="0.747899" stroke-linecap="round" stroke-linejoin="round"/>
<path d="M15.7306 12.2858C15.6292 12.5156 15.5989 12.7705 15.6437 13.0177C15.6885 13.2648 15.8064 13.4929 15.982 13.6725L16.0277 13.7182C16.1694 13.8597 16.2818 14.0278 16.3585 14.2128C16.4352 14.3977 16.4747 14.596 16.4747 14.7963C16.4747 14.9965 16.4352 15.1948 16.3585 15.3798C16.2818 15.5648 16.1694 15.7329 16.0277 15.8744C15.8862 16.0161 15.7182 16.1285 15.5332 16.2051C15.3482 16.2818 15.1499 16.3213 14.9496 16.3213C14.7494 16.3213 14.5511 16.2818 14.3661 16.2051C14.1811 16.1285 14.0131 16.0161 13.8715 15.8744L13.8258 15.8287C13.6463 15.653 13.4182 15.5352 13.171 15.4904C12.9239 15.4456 12.669 15.4758 12.4392 15.5772C12.2138 15.6738 12.0216 15.8342 11.8863 16.0386C11.7509 16.243 11.6782 16.4825 11.6773 16.7277V16.8572C11.6773 17.2614 11.5167 17.649 11.2309 17.9347C10.9452 18.2205 10.5576 18.381 10.1535 18.381C9.74931 18.381 9.36173 18.2205 9.07596 17.9347C8.79019 17.649 8.62964 17.2614 8.62964 16.8572V16.7887C8.62374 16.5365 8.54211 16.2919 8.39537 16.0867C8.24862 15.8815 8.04354 15.7253 7.80679 15.6382C7.57698 15.5368 7.32207 15.5065 7.07491 15.5513C6.82775 15.5961 6.59968 15.714 6.42012 15.8896L6.3744 15.9353C6.23288 16.077 6.06483 16.1894 5.87984 16.2661C5.69485 16.3428 5.49656 16.3822 5.29631 16.3822C5.09606 16.3822 4.89777 16.3428 4.71278 16.2661C4.52779 16.1894 4.35974 16.077 4.21821 15.9353C4.07654 15.7938 3.96414 15.6258 3.88746 15.4408C3.81077 15.2558 3.7713 15.0575 3.7713 14.8572C3.7713 14.657 3.81077 14.4587 3.88746 14.2737C3.96414 14.0887 4.07654 13.9207 4.21821 13.7791L4.26393 13.7334C4.43958 13.5539 4.5574 13.3258 4.60222 13.0786C4.64703 12.8315 4.61678 12.5766 4.51536 12.3468C4.41878 12.1214 4.25841 11.9292 4.054 11.7939C3.84959 11.6585 3.61005 11.5858 3.36488 11.5849H3.23536C2.83122 11.5849 2.44363 11.4243 2.15786 11.1385C1.87209 10.8528 1.71155 10.4652 1.71155 10.061C1.71155 9.65691 1.87209 9.26932 2.15786 8.98355C2.44363 8.69778 2.83122 8.53724 3.23536 8.53724H3.30393C3.55612 8.53134 3.80069 8.44971 4.00587 8.30296C4.21105 8.15621 4.36733 7.95113 4.4544 7.71438C4.55583 7.48458 4.58608 7.22966 4.54127 6.9825C4.49645 6.73534 4.37862 6.50728 4.20298 6.32771L4.15726 6.282C4.01558 6.14048 3.90319 5.97242 3.8265 5.78743C3.74982 5.60244 3.71035 5.40415 3.71035 5.2039C3.71035 5.00365 3.74982 4.80536 3.8265 4.62037C3.90319 4.43539 4.01558 4.26733 4.15726 4.12581C4.29878 3.98413 4.46684 3.87173 4.65183 3.79505C4.83682 3.71836 5.03511 3.67889 5.23536 3.67889C5.43561 3.67889 5.6339 3.71836 5.81889 3.79505C6.00387 3.87173 6.17193 3.98413 6.31345 4.12581L6.35917 4.17152C6.53873 4.34717 6.7668 4.465 7.01396 4.50981C7.26111 4.55463 7.51603 4.52437 7.74583 4.42295H7.80679C8.03213 4.32637 8.22432 4.166 8.35969 3.96159C8.49507 3.75718 8.56771 3.51764 8.56869 3.27247V3.14295C8.56869 2.73881 8.72923 2.35122 9.015 2.06545C9.30077 1.77968 9.68836 1.61914 10.0925 1.61914C10.4966 1.61914 10.8842 1.77968 11.17 2.06545C11.4558 2.35122 11.6163 2.73881 11.6163 3.14295V3.21152C11.6173 3.45669 11.6899 3.69623 11.8253 3.90064C11.9607 4.10505 12.1529 4.26542 12.3782 4.362C12.608 4.46342 12.8629 4.49367 13.1101 4.44886C13.3572 4.40404 13.5853 4.28622 13.7649 4.11057L13.8106 4.06485C13.9521 3.92318 14.1202 3.81078 14.3052 3.7341C14.4902 3.65741 14.6884 3.61794 14.8887 3.61794C15.0889 3.61794 15.2872 3.65741 15.4722 3.7341C15.6572 3.81078 15.8253 3.92318 15.9668 4.06485C16.1085 4.20638 16.2209 4.37443 16.2975 4.55942C16.3742 4.74441 16.4137 4.9427 16.4137 5.14295C16.4137 5.3432 16.3742 5.54149 16.2975 5.72648C16.2209 5.91147 16.1085 6.07952 15.9668 6.22105L15.9211 6.26676C15.7454 6.44632 15.6276 6.67439 15.5828 6.92155C15.538 7.16871 15.5682 7.42362 15.6696 7.65343V7.71438C15.7662 7.93973 15.9266 8.13192 16.131 8.26729C16.3354 8.40266 16.5749 8.47531 16.8201 8.47628H16.9496C17.3538 8.47628 17.7414 8.63683 18.0271 8.9226C18.3129 9.20837 18.4735 9.59595 18.4735 10.0001C18.4735 10.4042 18.3129 10.7918 18.0271 11.0776C17.7414 11.3634 17.3538 11.5239 16.9496 11.5239H16.8811C16.6359 11.5249 16.3964 11.5975 16.192 11.7329C15.9875 11.8683 15.8272 12.0605 15.7306 12.2858V12.2858Z" stroke="#96A7BB" stroke-width="0.747899" stroke-linecap="round" stroke-linejoin="round"/>
</svg>
