<svg width="16" height="16" viewBox="0 0 16 16" fill="none" xmlns="http://www.w3.org/2000/svg">
<path d="M6.8605 2.57323L1.21384 11.9999C1.09741 12.2015 1.03581 12.4301 1.03516 12.6629C1.03451 12.8957 1.09483 13.1246 1.21012 13.3269C1.32541 13.5292 1.49165 13.6977 1.69231 13.8158C1.89296 13.9339 2.12104 13.9973 2.35384 13.9999H13.6472C13.88 13.9973 14.108 13.9339 14.3087 13.8158C14.5094 13.6977 14.6756 13.5292 14.7909 13.3269C14.9062 13.1246 14.9665 12.8957 14.9658 12.6629C14.9652 12.4301 14.9036 12.2015 14.7872 11.9999L9.1405 2.57323C9.02166 2.3773 8.85432 2.21531 8.65463 2.10288C8.45495 1.99046 8.22966 1.9314 8.0005 1.9314C7.77135 1.9314 7.54606 1.99046 7.34637 2.10288C7.14669 2.21531 6.97935 2.3773 6.8605 2.57323Z" fill="#776832"/>
<path d="M8 6V8.66667" stroke="#F3E2A3" stroke-linecap="round" stroke-linejoin="round"/>
<path d="M8 11V11.1" stroke="#F3E2A3" stroke-linecap="round" stroke-linejoin="round"/>
</svg>
