<svg xmlns="http://www.w3.org/2000/svg" x="0px" y="0px" width="101.83" height="122.88" viewBox="0 0 101.83 122.88"> 
<path d="M6.77,12.82h16.25v10.5h-7.01c-3.13,0-5.72,2.59-5.72,5.72v78.43c0,3.13,2.58,5.72,5.72,5.72h69.8 c3.14,0,5.72-2.58,5.72-5.72V29.04c0-3.14-2.59-5.72-5.72-5.72h-7.01v-10.5h16.25c3.73,0,6.77,3.07,6.77,6.77v96.51 c0,3.71-3.06,6.77-6.77,6.77H6.77c-3.71,0-6.77-3.05-6.77-6.77V19.59C0,15.86,3.05,12.82,6.77,12.82L6.77,12.82z M37.79,95.89 c-2.01,0-3.64-1.63-3.64-3.64c0-2.01,1.63-3.64,3.64-3.64h26.24c2.01,0,3.64,1.63,3.64,3.64c0,2.01-1.63,3.64-3.64,3.64H37.79 L37.79,95.89z M30.03,73.91c-2.01,0-3.64-1.63-3.64-3.64c0-2.01,1.63-3.64,3.64-3.64h41.76c2.01,0,3.64,1.63,3.64,3.64 c0,2.01-1.63,3.64-3.64,3.64H30.03L30.03,73.91z M23.2,51.94c-2.01,0-3.64-1.63-3.64-3.64s1.63-3.64,3.64-3.64h55.44 c2.01,0,3.64,1.63,3.64,3.64s-1.63,3.64-3.64,3.64H23.2L23.2,51.94z M32.4,9.46h7.68C40.73,4.13,45.04,0,50.26,0 c5.19,0,9.47,4.07,10.17,9.35l8.99,0.11c0.63,0,1.13,0.5,1.13,1.13v15.33c0,0.63-0.5,1.13-1.13,1.13h-37 c-0.61,0-1.13-0.5-1.13-1.13V10.59C31.27,9.97,31.78,9.46,32.4,9.46L32.4,9.46L32.4,9.46L32.4,9.46z M46.06,14.1 c0.69,0.95,1.69,1.89,2.74,2.37c0.86,0.26,1.8,0.28,2.67,0.04c1.36-0.63,2.62-2.14,3.2-3.4c0.07-0.36,0.11-0.73,0.11-1.13 c0-2.67-2.05-4.84-4.57-4.84c-2.53,0-4.57,2.17-4.57,4.84C45.64,12.8,45.79,13.51,46.06,14.1L46.06,14.1L46.06,14.1L46.06,14.1z"
fill="#96A7BB" stroke="#96A7BB" />
</svg>