<svg width="256" height="162" viewBox="0 0 256 162" fill="none" xmlns="http://www.w3.org/2000/svg">
<rect x="15.0472" y="1.38462" width="200.219" height="133.857" rx="6.92308" fill="#26394D" stroke="white" stroke-width="2.76923"/>
<path fill-rule="evenodd" clip-rule="evenodd" d="M116.133 61.6223L121.659 45.8211L133.172 45.8215H133.915C133.915 45.8215 135.642 45.9087 136.448 44.892C136.928 44.8567 136.347 47.0129 135.802 48.5973C135.291 50.0839 134.661 50.9332 133.224 50.9337L131.382 50.9332H126.725L119.817 71.1495H112.448L105.54 50.9332H100.883L99.0412 50.9337C97.6036 50.9332 96.9736 50.0839 96.4626 48.5973C95.918 47.0129 95.3368 44.8567 95.8174 44.892C96.6234 45.9087 98.3504 45.8215 98.3504 45.8215H99.0926L110.606 45.8211L116.133 61.6223ZM101.114 53.7197C101.114 53.7197 99.387 53.8069 98.581 52.7902C98.1004 52.755 98.6816 54.9111 99.2262 56.4955C99.7372 57.9821 100.367 58.8314 101.805 58.8319L106.922 58.8315L105.195 53.7193L101.114 53.7197ZM103.878 61.6221C103.878 61.6221 102.151 61.7093 101.345 60.6926C100.865 60.6573 101.446 62.8135 101.991 64.3979C102.502 65.8845 103.132 66.7338 104.569 66.7343L109.687 66.7338L107.96 61.6217L103.878 61.6221ZM131.152 53.7211C131.152 53.7211 132.879 53.8082 133.685 52.7916C134.166 52.7563 133.585 54.9125 133.04 56.4969C132.529 57.9834 131.899 58.8328 130.462 58.8332L125.344 58.8328L127.071 53.7207L131.152 53.7211ZM128.389 61.6204C128.389 61.6204 130.116 61.7076 130.922 60.6909C131.402 60.6557 130.821 62.8118 130.276 64.3962C129.765 65.8828 129.135 66.7321 127.698 66.7326L122.581 66.7322L124.308 61.62L128.389 61.6204Z" fill="white"/>
<path fill-rule="evenodd" clip-rule="evenodd" d="M96.33 121.013H0V129.704C0 133.528 3.09957 136.627 6.92308 136.627H225.342C229.166 136.627 232.265 133.528 232.265 129.704V121.013H135.935C134.813 123.323 132.444 124.916 129.703 124.916H102.562C99.8206 124.916 97.4517 123.323 96.33 121.013Z" fill="white"/>
<rect x="184.854" y="30.662" width="69.4476" height="129.954" rx="6.92308" fill="#26394D" stroke="white" stroke-width="2.76923"/>
<path fill-rule="evenodd" clip-rule="evenodd" d="M219.578 101.832L223.911 89.4445L232.937 89.4448H233.519C233.519 89.4448 234.873 89.5132 235.505 88.7162C235.881 88.6885 235.426 90.3789 234.999 91.621C234.598 92.7864 234.104 93.4523 232.977 93.4526L231.533 93.4523H227.882L222.466 109.301H216.69L211.274 93.4523H207.623L206.179 93.4526C205.052 93.4523 204.558 92.7864 204.157 91.621C203.73 90.3789 203.275 88.6885 203.652 88.7162C204.283 89.5132 205.637 89.4448 205.637 89.4448H206.219L215.245 89.4445L219.578 101.832ZM207.803 95.6367C207.803 95.6367 206.45 95.705 205.818 94.908C205.441 94.8804 205.897 96.5707 206.324 97.8128C206.724 98.9783 207.218 99.6441 208.345 99.6445L212.357 99.6442L211.003 95.6364L207.803 95.6367ZM209.971 101.832C209.971 101.832 208.617 101.9 207.985 101.103C207.608 101.076 208.064 102.766 208.491 104.008C208.892 105.174 209.386 105.839 210.513 105.84L214.524 105.839L213.17 101.832L209.971 101.832ZM231.353 95.6377C231.353 95.6377 232.707 95.7061 233.339 94.909C233.716 94.8814 233.26 96.5718 232.833 97.8139C232.432 98.9793 231.938 99.6451 230.811 99.6455L226.8 99.6452L228.154 95.6374L231.353 95.6377ZM229.186 101.831C229.186 101.831 230.54 101.899 231.172 101.102C231.549 101.075 231.093 102.765 230.666 104.007C230.266 105.173 229.772 105.838 228.645 105.839L224.633 105.838L225.987 101.831L229.186 101.831Z" fill="white"/>
<path d="M202.988 29.2773H236.168L231.12 37.6919C230.619 38.526 229.718 39.0364 228.745 39.0364H210.411C209.438 39.0364 208.537 38.526 208.036 37.6919L202.988 29.2773Z" fill="white"/>
</svg>
