<svg xmlns="http://www.w3.org/2000/svg" height="1em" fill="#8b9aab" viewBox="0 0 512 512">
  <path d="M 255.5593803786575 58.602409638554214 Q 201.8037865748709 59.48364888123924 159.50430292598966 79.75215146299483 L 159.50430292598966 79.75215146299483 L 159.50430292598966 79.75215146299483 Q 117.20481927710843 100.02065404475043 85.4802065404475 129.98278829604132 Q 54.6368330464716 159.06368330464716 34.36833046471601 189.90705679862307 Q 14.099827882960414 220.75043029259896 4.406196213425129 245.42512908777968 Q 0 256 4.406196213425129 266.5748709122203 Q 14.099827882960414 291.249569707401 34.36833046471601 322.09294320137695 Q 54.6368330464716 352.93631669535284 85.4802065404475 382.0172117039587 Q 117.20481927710843 411.9793459552496 159.50430292598966 432.24784853700515 Q 201.8037865748709 452.5163511187608 255.5593803786575 453.3975903614458 Q 309.3149741824441 452.5163511187608 351.6144578313253 432.24784853700515 Q 393.9139414802065 411.9793459552496 425.6385542168675 382.0172117039587 Q 456.48192771084337 352.93631669535284 476.750430292599 322.09294320137695 Q 497.01893287435456 291.249569707401 507.5938037865749 266.5748709122203 Q 512 256 507.5938037865749 245.42512908777968 Q 497.01893287435456 220.75043029259896 476.750430292599 189.90705679862307 Q 456.48192771084337 159.06368330464716 425.6385542168675 129.98278829604132 Q 393.9139414802065 100.02065404475043 351.6144578313253 79.75215146299483 Q 309.3149741824441 59.48364888123924 255.5593803786575 58.602409638554214 L 255.5593803786575 58.602409638554214 Z M 128.66092943201377 256 Q 128.66092943201377 221.631669535284 145.40447504302927 192.55077452667814 L 145.40447504302927 192.55077452667814 L 145.40447504302927 192.55077452667814 Q 162.14802065404476 163.46987951807228 192.11015490533563 145.84509466437177 Q 222.0722891566265 129.10154905335628 255.5593803786575 129.10154905335628 Q 289.04647160068845 129.10154905335628 319.0086058519793 145.84509466437177 Q 348.9707401032702 163.46987951807228 365.7142857142857 192.55077452667814 Q 382.4578313253012 221.631669535284 382.4578313253012 256 Q 382.4578313253012 290.368330464716 365.7142857142857 319.44922547332186 Q 348.9707401032702 348.5301204819277 319.0086058519793 366.1549053356282 Q 289.04647160068845 382.8984509466437 255.5593803786575 382.8984509466437 Q 222.0722891566265 382.8984509466437 192.11015490533563 366.1549053356282 Q 162.14802065404476 348.5301204819277 145.40447504302927 319.44922547332186 Q 128.66092943201377 290.368330464716 128.66092943201377 256 L 128.66092943201377 256 Z M 255.5593803786575 199.60068846815835 Q 254.67814113597245 223.39414802065406 238.815834767642 239.2564543889845 L 238.815834767642 239.2564543889845 L 238.815834767642 239.2564543889845 Q 222.95352839931152 255.118760757315 199.16006884681585 256 Q 189.46643717728054 256 181.5352839931153 253.35628227194493 Q 172.72289156626505 251.59380378657488 170.960413080895 259.5249569707401 Q 170.960413080895 268.33734939759034 173.6041308089501 278.03098106712565 Q 184.1790017211704 312.39931153184165 213.25989672977624 329.14285714285717 Q 242.3407917383821 345.88640275387263 277.5903614457831 337.9552495697074 Q 311.9586919104991 327.3803786574871 328.70223752151463 298.2994836488812 Q 345.4457831325301 269.2185886402754 337.51462994836487 233.96901893287435 Q 329.58347676419965 206.65060240963857 308.43373493975906 189.90705679862307 Q 286.4027538726334 173.16351118760758 259.0843373493976 171.40103270223753 Q 251.15318416523235 173.16351118760758 252.9156626506024 181.97590361445782 Q 255.5593803786575 189.90705679862307 255.5593803786575 199.60068846815835 L 255.5593803786575 199.60068846815835 Z" />
</svg>