<svg width="84" height="29" viewBox="0 0 84 29" fill="none" xmlns="http://www.w3.org/2000/svg">
<path fill-rule="evenodd" clip-rule="evenodd" d="M6.74582 0H12.7788C12.8537 0 12.9251 0.0333684 12.9736 0.0913368C13.0225 0.149062 13.0435 0.225541 13.0309 0.300559L8.58979 27.4344C8.57026 27.5538 8.47118 27.6434 8.35186 27.6502L1.71847 28.0328C1.71365 28.0331 1.70907 28.0333 1.70401 28.0333C1.63169 28.0333 1.56226 28.0024 1.51381 27.9476C1.46174 27.8889 1.43884 27.8097 1.45186 27.7323L5.19922 5.05109C5.12066 1.67176 0.99204 0.854709 0.488229 0.728234C-0.0554207 0.591486 0.00172434 0 0.00172434 0H6.74582ZM39.0672 0.122331C39.0216 0.0464429 38.9404 0 38.8528 0H32.3447C32.2512 0 32.166 0.0526672 32.1225 0.136216L23.1414 17.5307L20.0843 0.209472C20.0628 0.0880978 19.9591 0 19.8378 0H13.285C13.2106 0 13.1396 0.0337549 13.0921 0.0921675C13.0447 0.150101 13.0251 0.226948 13.0388 0.3014L17.8906 26.3511C17.913 26.4715 18.0166 26.5579 18.1366 26.5579C18.1411 26.5579 18.146 26.5577 18.1508 26.5574L25.715 26.1193C25.8031 26.1143 25.8824 26.0626 25.923 25.9831L39.075 0.371543C39.1156 0.292542 39.1125 0.19822 39.0672 0.122331ZM59.3375 5.61893C59.2535 4.8321 59.075 4.13309 58.8067 3.54049C58.5374 2.9479 58.1986 2.44006 57.8 2.03135C57.4061 1.62946 56.9927 1.29443 56.5659 1.03239C55.5321 0.432968 54.3033 0.0859343 52.8984 0H40.4656C40.3463 0 40.244 0.0882887 40.2244 0.208597L36.2103 24.7915C36.1979 24.8663 36.22 24.9428 36.2695 24.9996C36.3158 25.0526 36.3821 25.0825 36.4514 25.0825C36.4563 25.0825 36.4604 25.0822 36.4653 25.082L42.7158 24.7173C42.83 24.7107 42.9244 24.6238 42.9431 24.5085L43.6902 19.8762L49.7747 19.8758C51.1588 19.7908 52.4654 19.4459 53.658 18.8509C54.6896 18.3377 55.6958 17.5111 56.6495 16.3949C57.6118 15.2681 58.2827 13.6645 58.642 11.6277L59.2134 8.33304C59.379 7.3143 59.4211 6.40105 59.3375 5.61893ZM52.1289 11.4933C52.0545 11.8726 51.918 12.2043 51.7204 12.4824C51.549 12.7322 51.3173 12.9556 51.0324 13.1456C50.7618 13.3262 50.3884 13.4175 49.923 13.4175H44.7068L45.81 6.41682H51.105C51.5571 6.41682 51.8864 6.50793 52.0836 6.68663C52.2989 6.88251 52.4555 7.10359 52.5467 7.33549C52.6425 7.60672 52.6789 7.93727 52.6573 8.29231L52.1289 11.4933ZM83.752 0H77.4274C77.3064 0 77.2027 0.0930211 77.1829 0.219778L74.9296 14.5564L70.0446 0.173639C70.0088 0.0697038 69.9159 0 69.8113 0H63.4866C63.3657 0 63.262 0.0930211 63.2421 0.219778L59.3828 24.7759C59.3702 24.8547 59.3924 24.9354 59.4428 24.9951C59.4897 25.051 59.557 25.0825 59.6271 25.0825C59.632 25.0825 66.0626 24.6925 66.0626 24.6925C66.1785 24.6856 66.2742 24.5943 66.2931 24.4727L67.9065 14.1104L71.3139 24.1852C71.351 24.2954 71.4507 24.3621 71.5612 24.3591L80.1363 23.8389C80.2519 23.832 80.3476 23.741 80.3666 23.6192L83.9966 0.306101C84.0087 0.2297 83.9884 0.15181 83.941 0.0930211C83.894 0.0339837 83.8247 0 83.752 0Z" fill="#FF3344"/>
</svg>
