<svg xmlns="http://www.w3.org/2000/svg" viewBox="0 0 32 31.02" width="16" height="16"  fill="grey">
  <path class="cls-1" d="M16,4A11.56,11.56,0,1,1,4.44,15.51,11.57,11.57,0,0,1,16,4M16,.51a15,15,0,1,0,15,15,15,15,0,0,0-15-15Z"/>
  <path d="M16,19.86a1.47,1.47,0,0,1-1.47-1.47v-.21c0-2,.16-3.36,2.52-5.52a2.22,2.22,0,0,0,.5-2.22c-.08-.21-.34-.87-1.63-.87a2.18,2.18,0,0,0-1.53.37.66.66,0,0,0-.07.44,1.49,1.49,0,0,1-1.09,1.75,1.44,1.44,0,0,1-1.75-1,3.52,3.52,0,0,1,.58-2.94,4.57,4.57,0,0,1,3.86-1.52A4.38,4.38,0,0,1,20.3,9.38,5.13,5.13,0,0,1,19,14.83c-1.57,1.44-1.57,1.92-1.56,3.34v.22A1.47,1.47,0,0,1,16,19.86Zm-1.67,3A1.66,1.66,0,1,0,16,21.19,1.66,1.66,0,0,0,14.34,22.85Z"/>
</svg>
