<svg width="18" height="17" viewBox="0 0 18 17" fill="none" xmlns="http://www.w3.org/2000/svg">
<path fill-rule="evenodd" clip-rule="evenodd" d="M12.9999 7.49895C12.9999 4.46149 10.5375 1.99902 7.50003 1.99902C4.46242 1.99902 2 4.46149 2 7.49895C2 10.5364 4.46242 12.999 7.50003 12.999C10.5375 12.999 12.9999 10.5364 12.9999 7.49895ZM11 7.49895C11 5.56591 9.43294 3.99873 7.50003 3.99873C5.56701 3.99873 3.99996 5.56591 3.99996 7.49895C3.99996 9.43198 5.56701 10.999 7.50003 10.999C9.43294 10.999 11 9.43198 11 7.49895Z" fill="#8B9AAB"/>
<path fill-rule="evenodd" clip-rule="evenodd" d="M9.59229 10.9464L11.0064 9.53195L16.0065 14.5322L14.5923 15.9462L9.59229 10.9464Z" fill="#8B9AAB"/>
</svg>
