<svg width="24" height="24" viewBox="0 0 24 24" fill="none" xmlns="http://www.w3.org/2000/svg">
<path fill-rule="evenodd" clip-rule="evenodd" d="M10.3816 1H13.6184V4.09992C14.3138 4.24109 14.9769 4.47145 15.5951 4.77853L17.4991 2.33298L20.0532 4.32097L18.1479 6.76833C18.4713 7.14586 18.7606 7.55353 19.0109 7.98654L21.9519 7.00583L22.9759 10.0761L20.0344 11.0571C20.0726 11.3762 20.0923 11.701 20.0923 12.0304C20.0923 12.3246 20.0766 12.6151 20.046 12.9011L23 13.8444L22.0154 16.9277L19.0623 15.9846C18.8005 16.4513 18.4938 16.8893 18.1481 17.2928L20.0532 19.7399L17.4991 21.7289L15.5948 19.2828C14.9767 19.5898 14.3137 19.8201 13.6184 19.9612V23.0608H10.3816V19.9612C9.68628 19.8201 9.02333 19.5898 8.40521 19.2828L6.50093 21.7289L3.94679 19.7399L5.85194 17.2928C5.52859 16.9154 5.2394 16.5078 4.98914 16.0749L2.04816 17.0557L1.02408 13.9845L3.96562 13.0036C3.92738 12.6846 3.90771 12.3598 3.90771 12.0304C3.90771 11.7364 3.9234 11.446 3.95398 11.16L1 10.2167L1.98461 7.13339L4.93786 8.07648C5.19966 7.6099 5.50635 7.1719 5.85209 6.76833L3.94679 4.32097L6.50093 2.33298L8.40494 4.77854C9.02314 4.47145 9.68617 4.24109 10.3816 4.09992V1ZM16.8553 12.0304C16.8553 9.34903 14.6816 7.17542 12 7.17542C9.31844 7.17542 7.14455 9.34903 7.14455 12.0304C7.14455 14.7121 9.31844 16.8857 12 16.8857C14.6816 16.8857 16.8553 14.7121 16.8553 12.0304Z" fill="#8B9AAB"/>
</svg>
