<svg width="23" height="15" viewBox="0 0 23 15" fill="none" xmlns="http://www.w3.org/2000/svg">
<path d="M22.997 13.3019C22.9953 13.2545 22.9937 13.2068 22.992 13.1589C22.9903 13.1111 22.9885 13.0631 22.9867 13.0148L22.9853 12.9787L22.9846 12.9606L22.9844 12.9561L22.9839 12.9157L22.9838 12.9138L22.9832 12.9063L22.9786 12.8463C22.9723 12.7664 22.966 12.686 22.9597 12.6057L22.9549 12.5449L22.9477 12.4661C22.9427 12.4136 22.9377 12.3612 22.9327 12.3089C22.9276 12.2567 22.9224 12.2046 22.9172 12.1526C22.9146 12.1267 22.9119 12.1007 22.9093 12.0749C22.9061 12.0509 22.9029 12.0271 22.8997 12.0032C22.8733 11.8137 22.8497 11.6275 22.8161 11.4485C22.8002 11.3589 22.7855 11.2708 22.769 11.185C22.751 11.0994 22.7334 11.0156 22.7163 10.9341C22.6838 10.7709 22.643 10.6185 22.6086 10.4777C22.5998 10.4425 22.5912 10.408 22.5828 10.3744C22.5734 10.3409 22.5642 10.3082 22.5553 10.2764C22.5372 10.2128 22.52 10.1524 22.5038 10.0958C22.4874 10.0392 22.4729 9.98611 22.4577 9.93741C22.4421 9.88888 22.4278 9.84429 22.4148 9.80401C22.3956 9.74484 22.3794 9.695 22.3667 9.65562C22.3478 9.59748 22.2859 9.56479 22.2266 9.58152L18.505 10.6337C18.4483 10.6498 18.4132 10.7058 18.424 10.7633C18.428 10.7848 18.4326 10.8094 18.4378 10.8369C18.4431 10.8646 18.4489 10.8953 18.4553 10.9287C18.4614 10.9622 18.4661 10.9989 18.4722 11.0377C18.4782 11.0765 18.4846 11.1179 18.4913 11.1615C18.4945 11.1832 18.4984 11.2054 18.5014 11.2284C18.5041 11.2513 18.5068 11.2749 18.5095 11.2989C18.5199 11.3951 18.5354 11.4982 18.5423 11.6088C18.5468 11.6638 18.5516 11.7204 18.5564 11.778C18.56 11.8359 18.5618 11.8952 18.5649 11.9553C18.573 12.0751 18.5715 12.1999 18.5738 12.3257L18.5743 12.3726L18.5726 12.4141C18.5717 12.4418 18.5707 12.4695 18.5698 12.4973C18.569 12.5249 18.5683 12.5527 18.5675 12.5805L18.5666 12.622L18.5641 12.6818C18.5606 12.7623 18.5571 12.8428 18.5537 12.923L18.5511 12.983L18.5508 12.9905L18.5507 12.9924C18.5507 13.0014 18.55 12.9209 18.5502 12.9556L18.5499 12.9586L18.5488 12.9705L18.5466 12.9942C18.5437 13.0257 18.5409 13.0571 18.538 13.0885C18.5353 13.1197 18.5325 13.1509 18.5298 13.1818C18.5261 13.2127 18.5224 13.2434 18.5187 13.2739C18.5108 13.3348 18.5059 13.3952 18.4961 13.4539C18.4876 13.5128 18.4791 13.5705 18.4709 13.6272C18.461 13.6834 18.4514 13.7384 18.442 13.7919C18.4335 13.8455 18.4222 13.8971 18.4121 13.947C18.4015 13.9968 18.3931 14.0452 18.3821 14.0911C18.3715 14.1371 18.3612 14.181 18.3515 14.2229C18.3466 14.2435 18.342 14.2636 18.3374 14.2832C18.3327 14.3 18.3282 14.3163 18.3238 14.3321C18.3212 14.3417 18.3187 14.3508 18.3162 14.3601H22.868C22.929 14.3601 22.9798 14.3126 22.9821 14.2522C22.9821 14.2518 22.9821 14.2515 22.9822 14.2511C22.9859 14.167 22.9898 14.0806 22.9938 13.9924C22.9955 13.9042 22.9972 13.8141 22.999 13.7224C23.0016 13.6309 22.9988 13.5379 22.9985 13.4438C22.998 13.3968 22.9975 13.3495 22.997 13.3019Z" fill="#98A5B3"/>
<path d="M21.8135 8.56321C21.8745 8.53882 21.9024 8.46865 21.8742 8.40964C21.8617 8.38341 21.8471 8.35274 21.8305 8.31805C21.8149 8.28546 21.7976 8.24936 21.7788 8.21007C21.7545 8.16095 21.7282 8.10784 21.7001 8.05108C21.6718 7.99455 21.6417 7.93439 21.6099 7.87099C21.5938 7.83802 21.578 7.81083 21.5614 7.77988C21.5449 7.74963 21.528 7.71869 21.5108 7.68708C21.4761 7.62399 21.4406 7.55804 21.4025 7.4905C21.3632 7.42369 21.3226 7.35459 21.2808 7.28355C21.2599 7.24813 21.2386 7.21219 21.2171 7.17587C21.1946 7.1401 21.1718 7.10389 21.1488 7.06729C21.1025 6.9944 21.0553 6.91989 21.0072 6.84416C20.9058 6.69588 20.8048 6.5408 20.6921 6.38988C20.6645 6.35188 20.6366 6.31374 20.6088 6.27549L20.5668 6.21815L20.5232 6.16176C20.4648 6.08675 20.4062 6.01148 20.3475 5.93619C20.2879 5.86178 20.2261 5.78893 20.1656 5.7158C20.1351 5.67947 20.1054 5.64262 20.0742 5.60713C20.0429 5.57175 20.0117 5.53646 19.9806 5.50131C19.9495 5.4663 19.9185 5.43135 19.8877 5.39662C19.857 5.36174 19.8261 5.32747 19.7942 5.29432C19.7311 5.22763 19.6688 5.16176 19.6074 5.09696C19.546 5.03236 19.4825 4.97165 19.422 4.91095C19.361 4.85059 19.3018 4.7913 19.2413 4.73624C19.1815 4.6807 19.1233 4.62667 19.067 4.5744C19.011 4.522 18.9538 4.47442 18.9005 4.42729C18.8468 4.38067 18.7953 4.336 18.7463 4.29352C18.696 4.25244 18.6484 4.21349 18.6036 4.17689C18.5588 4.14043 18.5169 4.10632 18.4781 4.07478C18.4393 4.04335 18.4021 4.01611 18.3694 3.99071C18.3217 3.95441 18.2814 3.92374 18.2494 3.89937C18.2007 3.86222 18.1311 3.87015 18.0919 3.91721L16.0945 6.31602C16.0568 6.36126 16.06 6.42737 16.102 6.46866C16.1187 6.48503 16.138 6.50397 16.1597 6.52528C16.1805 6.546 16.2043 6.56793 16.2287 6.59354C16.2532 6.61912 16.2795 6.64683 16.3077 6.67639C16.336 6.70582 16.366 6.73713 16.3976 6.77014C16.4281 6.80421 16.4602 6.84009 16.4937 6.8775C16.5268 6.91525 16.5629 6.95272 16.5973 6.99451C16.632 7.03589 16.6679 7.07865 16.7047 7.12263C16.7423 7.1658 16.7782 7.21268 16.8153 7.26003C16.852 7.30771 16.8913 7.35472 16.9281 7.40514C16.9651 7.45539 17.0026 7.50647 17.0405 7.5582C17.0599 7.58365 17.0783 7.6102 17.0964 7.63714C17.1147 7.6639 17.1331 7.69075 17.1516 7.71774C17.17 7.74459 17.1887 7.77158 17.2073 7.79866C17.2258 7.82575 17.2429 7.85407 17.2608 7.88177C17.2961 7.93768 17.3327 7.99276 17.3673 8.04906C17.4011 8.10591 17.4349 8.16279 17.4686 8.21941L17.4938 8.26166L17.5175 8.30481C17.5333 8.33346 17.549 8.36205 17.5647 8.39049C17.6295 8.50288 17.6841 8.61877 17.7413 8.72765C17.7675 8.78346 17.7933 8.83832 17.8185 8.89206C17.8311 8.91882 17.8435 8.94531 17.8559 8.97145C17.8673 8.99807 17.8786 9.02434 17.8897 9.0503C17.912 9.10193 17.9338 9.15223 17.9548 9.20081C17.9743 9.25007 17.993 9.29766 18.0111 9.34331C18.0201 9.36612 18.0289 9.38844 18.0375 9.41026C18.0457 9.43155 18.0558 9.45458 18.0612 9.47231C18.0741 9.50952 18.0862 9.54486 18.0977 9.57805C18.1094 9.61102 18.1203 9.64185 18.1304 9.67038C18.1437 9.70971 18.1559 9.74576 18.1669 9.77836C18.1792 9.81477 18.19 9.84696 18.1992 9.87454C18.22 9.93645 18.2891 9.96802 18.3502 9.94369L21.8135 8.56321Z" fill="#98A5B3"/>
<path d="M11.6416 4.27784C11.6719 4.28193 11.7053 4.28646 11.7418 4.2914C11.778 4.29765 11.8172 4.30443 11.8591 4.31168C11.9009 4.3188 11.9454 4.32636 11.9923 4.33437C12.033 4.34108 12.0752 4.35083 12.1191 4.35993L13.3797 1.80167C13.3172 1.792 13.2552 1.78239 13.1945 1.77298C13.1529 1.76685 13.1119 1.75979 13.0711 1.75473C13.0303 1.74983 12.99 1.74498 12.9502 1.7402C12.8707 1.73084 12.7935 1.72172 12.7187 1.71291C12.6438 1.70655 12.5714 1.70038 12.5019 1.69448C12.4324 1.68919 12.3661 1.68222 12.3026 1.67923C12.2393 1.67615 12.1792 1.67321 12.1227 1.67045C12.0663 1.66781 12.0135 1.66535 11.9647 1.66305C11.9159 1.66227 11.871 1.66156 11.8305 1.66091C11.7735 1.66022 11.7251 1.65965 11.6863 1.65919C11.6248 1.65845 11.5739 1.70615 11.571 1.76712L11.456 4.14825C11.4532 4.20691 11.4958 4.258 11.5545 4.26597C11.5795 4.26938 11.6086 4.27335 11.6416 4.27784Z" fill="#98A5B3"/>
<path d="M15.0294 5.58919C15.0633 5.61362 15.0954 5.6368 15.1256 5.65861C15.1558 5.68008 15.1841 5.70018 15.2103 5.71877C15.2216 5.7265 15.2403 5.74057 15.2556 5.75183C15.2713 5.76349 15.2863 5.77459 15.3005 5.78512C15.3315 5.80809 15.3589 5.82836 15.3824 5.84572C15.4351 5.88476 15.5099 5.87156 15.5461 5.81698L17.1919 3.32967C17.2281 3.2751 17.2105 3.20169 17.1534 3.16921C17.128 3.15477 17.0984 3.1379 17.0649 3.11879C17.0494 3.11001 17.0332 3.10079 17.0162 3.09109C16.9976 3.08068 16.9782 3.06978 16.958 3.05843C16.9112 3.03282 16.8605 3.00516 16.8064 2.97557C16.7523 2.94631 16.6947 2.91518 16.6339 2.88233C16.5761 2.85357 16.5153 2.82334 16.4518 2.79178C16.3881 2.76093 16.3231 2.7266 16.2534 2.69545C16.184 2.66391 16.1122 2.63129 16.0385 2.59775C15.9652 2.56345 15.8879 2.5323 15.8095 2.49961C15.7307 2.46761 15.6514 2.43262 15.5686 2.40175C15.5477 2.39386 15.5264 2.38588 15.5052 2.37793L14.7952 5.43541C14.8345 5.45987 14.8715 5.48581 14.9079 5.50921C14.9503 5.53709 14.9908 5.56378 15.0294 5.58919Z" fill="#98A5B3"/>
<path d="M9.43171 4.2666C9.4635 4.26244 9.49471 4.25729 9.52588 4.25402C9.55704 4.2509 9.58784 4.24779 9.61819 4.24471C9.67878 4.23848 9.73771 4.23241 9.79473 4.22653C9.85192 4.22274 9.90718 4.21906 9.96022 4.21552C9.98668 4.21372 10.0126 4.21198 10.0379 4.21025C10.0632 4.20857 10.0885 4.20644 10.1102 4.20641C10.1549 4.20524 10.1973 4.20416 10.2371 4.20313C10.2768 4.20188 10.314 4.20071 10.3483 4.19963C10.3907 4.19936 10.4297 4.1991 10.4648 4.19887C10.5035 4.19867 10.5377 4.19848 10.5669 4.19832C10.6327 4.19798 10.6844 4.14269 10.6801 4.07754L10.532 1.83451C10.5276 1.76936 10.4691 1.72124 10.4038 1.72942C10.3748 1.73306 10.3409 1.73731 10.3025 1.74211C10.2669 1.7466 10.2275 1.75158 10.1846 1.75701C10.1339 1.76448 10.0791 1.77253 10.0205 1.78115C9.96205 1.78998 9.89986 1.79938 9.83431 1.80929C9.80076 1.81398 9.76987 1.82021 9.73745 1.82628C9.70513 1.83239 9.67206 1.83867 9.6383 1.84506C9.5709 1.85798 9.50071 1.87145 9.428 1.88538C9.35587 1.90168 9.28126 1.91855 9.20458 1.93586C9.16633 1.94458 9.12754 1.95343 9.08829 1.96239C9.04908 1.9715 9.00976 1.98262 8.96988 1.99285C8.89029 2.01389 8.80902 2.03538 8.72635 2.05722C8.64451 2.08171 8.5613 2.10658 8.4771 2.13178C8.43511 2.14467 8.39268 2.15683 8.35051 2.1706C8.30852 2.18483 8.26624 2.19911 8.22383 2.21348C8.1815 2.22787 8.139 2.24231 8.09639 2.25681C8.05376 2.2712 8.01105 2.28566 7.96892 2.30215C7.88446 2.33412 7.79968 2.36624 7.7149 2.39836C7.63048 2.43114 7.54746 2.46746 7.46425 2.50183C7.42278 2.51937 7.38118 2.53629 7.34019 2.55429C7.29948 2.57293 7.25891 2.59151 7.21847 2.61004C7.17813 2.62857 7.13793 2.64705 7.09796 2.66542C7.05799 2.68376 7.01818 2.70183 6.97949 2.72176C6.90182 2.76066 6.8251 2.7991 6.74965 2.83689C6.67418 2.87443 6.60226 2.91586 6.53082 2.954C6.45971 2.99285 6.38978 3.02991 6.32381 3.06984C6.25747 3.10887 6.19293 3.14688 6.13051 3.18361C6.0679 3.21984 6.00984 3.25897 5.95293 3.29433C5.89641 3.33026 5.84226 3.36472 5.79075 3.39748C5.74035 3.4318 5.69253 3.46435 5.6476 3.49495C5.60278 3.52557 5.56084 3.55422 5.52206 3.58072C5.48331 3.60723 5.44904 3.63351 5.41746 3.65622C5.37466 3.68758 5.33812 3.71433 5.30855 3.73599C5.25918 3.77215 5.24759 3.84045 5.28212 3.89082L6.2209 5.26018C6.25432 5.30892 6.31964 5.3242 6.37138 5.29522C6.39522 5.28188 6.4234 5.26609 6.45554 5.24811C6.48355 5.23273 6.51386 5.21457 6.54808 5.19689C6.58228 5.17919 6.61926 5.16011 6.65877 5.1397C6.69816 5.11926 6.7401 5.09751 6.78429 5.07459C6.82924 5.05321 6.87649 5.03073 6.9258 5.00728C6.97534 4.98438 7.0256 4.95815 7.07979 4.93528C7.13357 4.91185 7.18919 4.88764 7.24637 4.86275C7.30298 4.83688 7.36295 4.81429 7.42361 4.79015C7.4846 4.7667 7.54568 4.74017 7.60965 4.71776C7.67335 4.69497 7.73814 4.67182 7.80369 4.64838C7.8362 4.63612 7.86966 4.62575 7.90319 4.61513C7.93665 4.60444 7.97029 4.59371 8.00405 4.58293C8.03774 4.57212 8.07157 4.56127 8.1055 4.55037C8.1396 4.5401 8.1742 4.5309 8.20856 4.52106C8.27759 4.50212 8.34615 4.48111 8.41567 4.4635C8.48523 4.44642 8.55479 4.42934 8.62407 4.41235C8.65846 4.40327 8.69335 4.39616 8.72809 4.38906C8.76275 4.38182 8.79732 4.3746 8.83178 4.3674C8.86612 4.36016 8.90034 4.35297 8.9344 4.3458C8.96854 4.33904 9.00285 4.33382 9.03671 4.32777C9.10441 4.31612 9.17128 4.30458 9.23709 4.29327C9.30313 4.28423 9.36808 4.27531 9.43171 4.2666Z" fill="#98A5B3"/>
<path d="M3.03013 6.03612C3.00552 6.07065 2.98082 6.10534 2.956 6.14017C2.93126 6.17497 2.90642 6.20992 2.88148 6.24498C2.85667 6.28008 2.83345 6.31649 2.80931 6.35231C2.76171 6.42443 2.71301 6.49599 2.66639 6.56891C2.62085 6.64245 2.57532 6.716 2.52998 6.78926L2.49615 6.84411L2.46403 6.89986C2.44269 6.93692 2.42142 6.97391 2.40022 7.01071C2.31356 7.15676 2.23827 7.30605 2.16176 7.44785C2.12615 7.52015 2.09111 7.59125 2.05682 7.66086C2.03981 7.69562 2.02296 7.73006 2.00635 7.76404C1.99071 7.79848 1.97528 7.83252 1.96003 7.86613C1.92968 7.93321 1.90016 7.9985 1.87159 8.06163C1.84494 8.12556 1.81917 8.18731 1.79445 8.24658C1.77021 8.30603 1.74572 8.36228 1.72484 8.41688C1.70424 8.47152 1.68469 8.52339 1.66629 8.5721C1.64798 8.62077 1.63086 8.66631 1.61503 8.70842C1.60041 8.75095 1.587 8.79001 1.57485 8.8253C1.5591 8.87169 1.54557 8.91151 1.53451 8.94411C1.51493 9.00172 1.54471 9.06422 1.60194 9.08599L2.47573 9.41835C2.53134 9.4395 2.59398 9.41481 2.61967 9.36149C2.63242 9.3351 2.64764 9.30349 2.66513 9.26719C2.67964 9.23729 2.69567 9.20416 2.71317 9.16809C2.73175 9.13252 2.75184 9.09413 2.77332 9.05305C2.79473 9.01211 2.81749 8.96845 2.84149 8.92247C2.86568 8.87663 2.89353 8.82962 2.92118 8.77997C2.94917 8.73059 2.97834 8.67911 3.00853 8.62582C3.04035 8.57357 3.07323 8.5195 3.10706 8.46391C3.1239 8.43617 3.14098 8.40805 3.15827 8.37959C3.17646 8.35166 3.19488 8.32343 3.21348 8.29481C3.2507 8.23779 3.28872 8.17959 3.32739 8.12032C3.40956 8.00492 3.48992 7.88337 3.58073 7.76615C3.6029 7.73652 3.62517 7.7068 3.64751 7.67698L3.68099 7.63222L3.71607 7.58845C3.76278 7.53008 3.80968 7.47153 3.85658 7.41297C3.90434 7.35513 3.9539 7.29879 4.00207 7.24196C4.0265 7.21375 4.04995 7.18497 4.07495 7.15754C4.09997 7.13016 4.1249 7.10285 4.14974 7.07566C4.17454 7.04848 4.19922 7.02143 4.22378 6.99448C4.24811 6.9674 4.27267 6.9408 4.29818 6.91531C4.34837 6.86375 4.39796 6.8128 4.44673 6.76266C4.49541 6.71262 4.54623 6.66618 4.59419 6.61924C4.64253 6.57264 4.68929 6.52666 4.73744 6.48452C4.7848 6.44176 4.83087 6.40017 4.87545 6.35992C4.91966 6.31944 4.96521 6.2833 5.00729 6.24702C5.04965 6.21123 5.09025 6.17693 5.12885 6.14431C5.16676 6.11454 5.20272 6.08631 5.2365 6.05973C5.2701 6.0332 5.30154 6.00835 5.33063 5.98536C5.34397 5.97442 5.36205 5.96131 5.37732 5.9498C5.39298 5.93805 5.40792 5.92688 5.42211 5.91628C5.45299 5.89313 5.48027 5.87272 5.50362 5.85524C5.55615 5.81591 5.56428 5.74092 5.52156 5.69126L4.5267 4.53494C4.48397 4.48529 4.40804 4.48149 4.36065 4.52678C4.33959 4.54692 4.31496 4.57044 4.2871 4.59708C4.27431 4.60929 4.26083 4.62219 4.24669 4.63568C4.2323 4.64954 4.21861 4.66216 4.20077 4.68026C4.16666 4.71439 4.12979 4.75134 4.09038 4.79079C4.05117 4.83026 4.00944 4.87226 3.96544 4.91654C3.92454 4.96049 3.88154 5.0067 3.83668 5.05491C3.79237 5.10348 3.74459 5.15243 3.69837 5.20608C3.65195 5.25946 3.60399 5.31466 3.55466 5.37137C3.50472 5.42742 3.45641 5.48763 3.40671 5.54871C3.35738 5.61011 3.30538 5.67138 3.25577 5.7363C3.2063 5.80122 3.15602 5.86722 3.10513 5.93407C3.07928 5.9672 3.05455 6.00141 3.03013 6.03612Z" fill="#98A5B3"/>
<path d="M1.22249 10.0907C1.21667 10.1191 1.20986 10.1524 1.20214 10.19C1.19508 10.2245 1.18724 10.2628 1.17872 10.3044C1.17035 10.347 1.16217 10.3972 1.15304 10.4486C1.14405 10.5004 1.13451 10.5555 1.12445 10.6136C1.11958 10.6426 1.11402 10.6725 1.10941 10.7027C1.10531 10.7327 1.10114 10.7634 1.09685 10.7947C1.08054 10.92 1.05906 11.0549 1.04669 11.199C1.0395 11.2708 1.03214 11.3445 1.0246 11.4199C1.01839 11.4954 1.01425 11.5726 1.00889 11.651C0.996382 11.8076 0.994088 11.97 0.988874 12.1342L0.987183 12.196L0.987484 12.258C0.987716 12.2994 0.987947 12.3409 0.988179 12.3825C0.988434 12.424 0.988689 12.4656 0.98892 12.5072L0.989314 12.5697L0.991724 12.6322C0.99513 12.7154 0.998537 12.7986 1.00194 12.8814L1.00451 12.9434L1.0053 12.9634L1.00641 12.9784L1.00864 13.0082C1.01161 13.0481 1.01455 13.0878 1.01749 13.1273C1.02043 13.1669 1.02338 13.2063 1.02627 13.2455C1.03028 13.2863 1.03424 13.327 1.03823 13.3675C1.04224 13.4079 1.04622 13.4481 1.05019 13.488C1.05218 13.5079 1.05417 13.5277 1.05616 13.5475C1.05864 13.5669 1.06112 13.5863 1.06358 13.6056C1.07345 13.6826 1.08316 13.7584 1.09266 13.8325C1.10413 13.9063 1.11534 13.9786 1.12623 14.0489C1.13643 14.1192 1.14957 14.1872 1.16164 14.2529C1.16264 14.2581 1.16363 14.2633 1.16461 14.2686C1.17469 14.3223 1.22182 14.3612 1.27689 14.3612H1.58486C1.65062 14.3612 1.70281 14.3063 1.69894 14.2412C1.69789 14.2238 1.69683 14.2063 1.69565 14.1885C1.6918 14.1252 1.68717 14.0598 1.68568 13.9924C1.68346 13.9251 1.68119 13.856 1.67885 13.7853C1.67841 13.7147 1.67797 13.6425 1.67753 13.5691C1.67741 13.5508 1.67729 13.5324 1.67718 13.5139C1.67757 13.4957 1.67799 13.4775 1.67841 13.4591C1.67922 13.4225 1.68003 13.3856 1.68086 13.3485C1.68167 13.3114 1.68251 13.2741 1.68334 13.2366C1.6852 13.1974 1.68703 13.1579 1.6889 13.1183C1.69076 13.0787 1.69263 13.039 1.69449 12.9991L1.6959 12.9691L1.6966 12.9541L1.69669 12.9522C1.69669 12.9475 1.69678 12.9566 1.69683 12.9551L1.69711 12.9514L1.69769 12.9442L1.70237 12.8862C1.70858 12.8089 1.71481 12.7313 1.72107 12.6536L1.72584 12.5955L1.73258 12.5376C1.73708 12.499 1.74155 12.4605 1.74602 12.422C1.75047 12.3836 1.75492 12.3452 1.75934 12.307L1.76595 12.2498L1.7745 12.193C1.79795 12.042 1.81787 11.8934 1.84707 11.7512C1.86077 11.6799 1.87302 11.6098 1.88709 11.5415C1.9024 11.4735 1.91737 11.407 1.93195 11.3423C1.95892 11.2126 1.99388 11.0921 2.02234 10.9803C2.02964 10.9524 2.03677 10.9251 2.04375 10.8984C2.05112 10.8722 2.05907 10.8473 2.06639 10.8226C2.08115 10.7736 2.09517 10.7271 2.10833 10.6833C2.12179 10.6393 2.13284 10.5998 2.14573 10.5603C2.15923 10.5199 2.17161 10.4829 2.18282 10.4495C2.19501 10.413 2.20579 10.3808 2.21501 10.3532C2.23575 10.2913 2.19953 10.2249 2.13595 10.2081L1.3639 10.0039C1.3003 9.98703 1.2356 10.0267 1.22249 10.0907Z" fill="#98A5B3"/>
<path fill-rule="evenodd" clip-rule="evenodd" d="M10.7412 14.2398C10.4793 14.2398 10.2132 14.1821 9.962 14.0602C9.08033 13.6326 8.71501 12.5768 9.14607 11.702L12.6953 4.49933L13.9685 1.91569L14.8315 0.164325C14.888 0.0496331 14.9883 0 15.0884 0C15.2593 0 15.4297 0.144784 15.3804 0.357317L14.9563 2.18349L14.2717 5.13143L12.4741 12.8722C12.4443 12.9974 12.3983 13.1303 12.3389 13.2508C12.0307 13.8763 11.3988 14.2398 10.7412 14.2398ZM11.6778 12.4313C11.6778 11.9541 11.2878 11.5672 10.8068 11.5672C10.3258 11.5672 9.93585 11.954 9.93585 12.4313C9.93585 12.9085 10.3258 13.2954 10.8068 13.2954C11.2878 13.2954 11.6778 12.9085 11.6778 12.4313Z" fill="#98A5B3"/>
</svg>
