<svg width="256" height="256" viewBox="-2 -1 64 41" fill="none" xmlns="http://www.w3.org/2000/svg">
<path fill-rule="evenodd" clip-rule="evenodd" d="M29.9 24.8496L37.9629 1.38053L54.7607 1.38117L55.8436 1.38117C55.8436 1.38117 58.3632 1.51063 59.5391 0.000635086C60.2403 -0.0517752 59.3923 3.15073 58.5977 5.50393C57.8522 7.71192 56.933 8.97337 54.8357 8.97409L52.1481 8.97345L45.3539 8.97345L35.2753 39H24.5247L14.4461 8.97345L7.65195 8.97345L4.96431 8.97409C2.86699 8.97337 1.94782 7.71192 1.20228 5.50393C0.407719 3.15073 -0.440256 -0.0517752 0.260936 0.000635086C1.43682 1.51063 3.95644 1.38117 3.95644 1.38117L5.03933 1.38117L21.8371 1.38053L29.9 24.8496ZM7.99069 13.1158C7.99069 13.1158 5.47107 13.2452 4.29519 11.7352C3.594 11.6828 4.44197 14.8853 5.23654 17.2385C5.98207 19.4465 6.90124 20.708 8.99856 20.7087L16.4646 20.708L13.9449 13.1151L7.99069 13.1158ZM12.0205 24.8485C12.0205 24.8485 9.50088 24.9779 8.325 23.4679C7.62381 23.4155 8.47178 26.618 9.26635 28.9712C10.0119 31.1792 10.9311 32.4407 13.0284 32.4414L20.4944 32.4407L17.9747 24.8478L12.0205 24.8485ZM51.8144 13.1158C51.8144 13.1158 54.334 13.2452 55.5099 11.7352C56.2111 11.6828 55.3631 14.8853 54.5686 17.2385C53.823 19.4465 52.9039 20.708 50.8066 20.7087L43.3405 20.708L45.8602 13.1151L51.8144 13.1158ZM47.7802 24.8485C47.7802 24.8485 50.2998 24.9779 51.4757 23.4679C52.1769 23.4155 51.3289 26.618 50.5343 28.9712C49.7888 31.1792 48.8696 32.4407 46.7723 32.4414L39.3063 32.4407L41.8259 24.8478L47.7802 24.8485Z" fill="#FB3841"/>
</svg>
