<svg width="256" height="256" viewBox="0 0 256 256" fill="none" xmlns="http://www.w3.org/2000/svg">
<rect width="256" height="256" rx="40" fill="#29292E"/>
<path fill-rule="evenodd" clip-rule="evenodd" d="M121.296 96.2793C121.192 96.106 121.007 96 120.806 96H105.931C105.717 96 105.522 96.1202 105.423 96.311L84.8946 136.023L77.9068 96.4782C77.8577 96.2011 77.6207 96 77.3434 96H62.3656C62.1956 96 62.0332 96.0771 61.9247 96.2104C61.8162 96.3427 61.7714 96.5181 61.8027 96.6881L72.8926 156.16C72.9439 156.434 73.1808 156.632 73.455 156.632C73.4652 156.632 73.4765 156.631 73.4873 156.631L90.7771 155.63C90.9784 155.619 91.1597 155.501 91.2525 155.32L121.314 96.8482C121.407 96.6679 121.4 96.4525 121.296 96.2793Z" fill="#FF3344"/>
<path fill-rule="evenodd" clip-rule="evenodd" d="M151.152 122.238C150.982 123.104 150.67 123.861 150.218 124.496C149.827 125.066 149.297 125.577 148.646 126.01C148.027 126.423 147.174 126.631 146.11 126.631H134.187L136.709 110.649H148.812C149.845 110.649 150.598 110.857 151.049 111.264C151.541 111.712 151.899 112.216 152.107 112.746C152.326 113.365 152.409 114.12 152.36 114.93L151.152 122.238ZM167.629 108.828C167.437 107.032 167.029 105.436 166.416 104.083C165.8 102.73 165.026 101.571 164.115 100.638C163.214 99.7201 162.269 98.9552 161.294 98.3569C158.931 96.9885 156.122 96.1962 152.911 96H124.493C124.22 96 123.987 96.2016 123.942 96.4762L114.767 152.599C114.738 152.77 114.789 152.945 114.902 153.074C115.008 153.195 115.159 153.263 115.318 153.263C115.329 153.263 115.338 153.263 115.349 153.262L129.636 152.43C129.897 152.415 130.113 152.216 130.156 151.953L131.864 141.378L145.771 141.376C148.935 141.182 151.921 140.395 154.647 139.037C157.005 137.865 159.305 135.978 161.485 133.429C163.684 130.857 165.218 127.196 166.039 122.546L167.345 115.024C167.724 112.699 167.82 110.614 167.629 108.828Z" fill="#FF3344"/>
<path fill-rule="evenodd" clip-rule="evenodd" d="M223.433 96H208.977C208.7 96 208.463 96.2124 208.418 96.5018L203.267 129.232L192.101 96.3964C192.02 96.1591 191.807 96 191.568 96H177.112C176.835 96 176.598 96.2124 176.553 96.5018L167.732 152.563C167.703 152.743 167.753 152.928 167.869 153.064C167.976 153.191 168.13 153.263 168.29 153.263C168.301 153.263 183 152.373 183 152.373C183.265 152.357 183.483 152.149 183.527 151.871L187.214 128.214L195.003 151.215C195.088 151.466 195.316 151.619 195.568 151.612L215.168 150.424C215.433 150.409 215.651 150.201 215.695 149.923L223.992 96.6988C224.02 96.5244 223.973 96.3466 223.865 96.2124C223.757 96.0776 223.599 96 223.433 96Z" fill="#FF3344"/>
<path fill-rule="evenodd" clip-rule="evenodd" d="M61.6531 96.2085C61.5424 96.0762 61.3793 96 61.2079 96H46.2856C46.0001 96 45.756 96.2085 45.7092 96.4927L35.3178 159.313C35.288 159.49 35.3403 159.67 35.4594 159.804C35.5701 159.93 35.7288 160 35.8941 160C35.9057 160 35.9161 160 35.9272 159.999L51.0892 159.126C51.362 159.11 51.5884 158.905 51.6331 158.633L61.7843 96.6862C61.8129 96.5149 61.765 96.3403 61.6531 96.2085Z" fill="#FF3344"/>
<path fill-rule="evenodd" clip-rule="evenodd" d="M48.5518 96H32.0039C32.0039 96 31.8733 97.3504 33.116 97.6626C34.3586 97.9741 45.2487 100.122 43.7442 109.474C43.7442 109.439 48.4212 104.694 48.4212 104.694L48.5518 96Z" fill="#FF3344"/>
</svg>
